<?xml version="1.0" encoding="UTF-8" standalone="no"?>
<svg
   xmlns:dc="http://purl.org/dc/elements/1.1/"
   xmlns:cc="http://creativecommons.org/ns#"
   xmlns:rdf="http://www.w3.org/1999/02/22-rdf-syntax-ns#"
   xmlns:svg="http://www.w3.org/2000/svg"
   xmlns="http://www.w3.org/2000/svg"
   xmlns:sodipodi="http://sodipodi.sourceforge.net/DTD/sodipodi-0.dtd"
   xmlns:inkscape="http://www.inkscape.org/namespaces/inkscape"
   inkscape:version="1.0rc1 (09960d6, 2020-04-09)"
   sodipodi:docname="layerLow.svg"
   viewBox="0 0 220.33771 409.1108"
   height="108.2439mm"
   width="58.297688mm"
   id="svg5368"
   version="1.1">
  <metadata
     id="metadata5374">
    <rdf:RDF>
      <cc:Work
         rdf:about="">
        <dc:format>image/svg+xml</dc:format>
        <dc:type
           rdf:resource="http://purl.org/dc/dcmitype/StillImage" />
        <dc:title />
      </cc:Work>
    </rdf:RDF>
  </metadata>
  <defs
     id="defs5372" />
  <sodipodi:namedview
     units="mm"
     inkscape:document-units="mm"
     inkscape:current-layer="layer1"
     inkscape:window-maximized="0"
     inkscape:window-y="23"
     inkscape:window-x="0"
     inkscape:cy="204.55539"
     inkscape:cx="39.005281"
     inkscape:zoom="1.5668127"
     showgrid="false"
     id="namedview5370"
     inkscape:window-height="849"
     inkscape:window-width="1404"
     inkscape:pageshadow="2"
     inkscape:pageopacity="0"
     guidetolerance="10"
     gridtolerance="10"
     objecttolerance="10"
     borderopacity="1"
     bordercolor="#666666"
     pagecolor="#ffffff"
     inkscape:document-rotation="0"
     showguides="false" />
  <g
     transform="translate(-114.76767,-5.1170044)"
     style="display:inline"
     inkscape:label="layerLow"
     id="layer1"
     inkscape:groupmode="layer">
    <path
       inkscape:connector-curvature="0"
       id="path5381"
       d="m 289.9193,324.39387 c 0.0197,-0.47659 0.11714,-0.57353 0.24835,-0.24717 0.11875,0.29532 0.10415,0.64818 -0.0324,0.78413 -0.1366,0.13594 -0.23376,-0.10569 -0.21591,-0.53696 z m 0,-2.86378 c 0.0197,-0.47659 0.11714,-0.57353 0.24835,-0.24717 0.11875,0.29533 0.10415,0.64819 -0.0324,0.78413 -0.1366,0.13595 -0.23376,-0.10569 -0.21591,-0.53696 z m -3.91127,-20.50608 c -0.22308,-0.58306 -0.17587,-0.63005 0.23012,-0.22901 0.28094,0.27751 0.40724,0.60762 0.28068,0.73358 -0.12657,0.12596 -0.35643,-0.1011 -0.5108,-0.50457 z m -1.19595,-1.68629 c -0.37418,-0.41149 -0.66443,-1.19392 -0.64499,-1.73872 0.0335,-0.93866 0.0535,-0.93024 0.38255,0.16064 0.19097,0.63316 0.56769,1.41558 0.83716,1.73872 0.71422,0.85648 0.22612,0.72004 -0.57472,-0.16064 z m -53.70937,-2.11562 c 0,-0.22502 0.18499,-0.40912 0.41108,-0.40912 0.2261,0 0.41108,0.1841 0.41108,0.40912 0,0.22501 -0.18498,0.40911 -0.41108,0.40911 -0.22609,0 -0.41108,-0.1841 -0.41108,-0.40911 z m -19.5529,-15.5032 c 0.15292,-0.24625 0.66002,-0.65118 1.1269,-0.89985 0.6082,-0.32395 0.77004,-0.3252 0.57082,-0.004 -0.15292,0.24626 -0.66003,0.65119 -1.1269,0.89986 -0.60821,0.32395 -0.77004,0.32519 -0.57082,0.004 z m 31.26862,-9.86167 c 0.13973,-0.22501 0.33563,-0.40911 0.43534,-0.40911 0.0997,0 0.18128,0.1841 0.18128,0.40911 0,0.22501 -0.1959,0.40911 -0.43535,0.40911 -0.23943,0 -0.321,-0.1841 -0.18127,-0.40911 z m -22.75316,-2.84332 c 0.17665,-0.52741 0.74048,-0.62214 0.79132,-0.13296 0.017,0.16313 -0.19115,0.37024 -0.46246,0.46025 -0.27131,0.09 -0.4193,-0.0573 -0.32886,-0.32729 z m 13.91499,-3.7266 c 0,-0.23829 0.18498,-0.31947 0.41108,-0.18041 0.22609,0.13906 0.41108,0.33403 0.41108,0.43326 0,0.0992 -0.18499,0.18041 -0.41108,0.18041 -0.2261,0 -0.41108,-0.19497 -0.41108,-0.43326 z m -12.31927,-0.28269 c 0.007,-0.16876 0.30956,-0.67503 0.67193,-1.12505 0.57899,-0.71906 0.62722,-0.7274 0.398,-0.0688 -0.14347,0.41217 -0.26085,0.91844 -0.26085,1.12505 0,0.2066 -0.18498,0.37565 -0.41108,0.37565 -0.22609,0 -0.40519,-0.13808 -0.398,-0.30683 z m 10.00146,-1.12505 c 0.16237,-0.42115 -0.0248,-0.61367 -0.5969,-0.61367 -0.50477,0 -0.72258,-0.17863 -0.55224,-0.45294 0.18669,-0.30061 0.004,-0.36554 -0.54139,-0.19308 -0.62519,0.19747 -0.8829,0.0361 -1.07357,-0.67212 -0.34825,-1.29366 -0.32396,-1.54563 0.14898,-1.54563 0.22609,0 0.41107,0.27264 0.41107,0.60587 0,0.33323 0.44219,0.71632 0.98264,0.85132 0.54047,0.135 1.5,0.78286 2.13231,1.43969 l 1.14964,1.19422 h -1.14858 c -0.85207,0 -1.0875,-0.15842 -0.91196,-0.61366 z m -8.73419,-1.22733 c -0.0219,-0.83061 0.99075,-4.14613 1.28889,-4.21964 0.31118,-0.0767 0.32717,0.19693 0.0553,0.94675 -0.0816,0.22501 -0.41497,1.14551 -0.74086,2.04555 -0.32588,0.90005 -0.59738,1.45235 -0.60334,1.22734 z m 6.27775,-3.64883 c -0.25185,-0.54076 -0.32241,-1.20141 -0.15679,-1.46811 0.18965,-0.30539 0.47332,0.007 0.76624,0.8429 0.55062,1.57196 0.55488,1.61574 0.15679,1.61163 -0.16957,-0.002 -0.51438,-0.44565 -0.76624,-0.98642 z m -3.11331,-1.74452 c 0.29674,-0.11819 0.65131,-0.10365 0.78789,0.0323 0.13661,0.13594 -0.10618,0.23264 -0.53954,0.21488 -0.47888,-0.0196 -0.57628,-0.11658 -0.24835,-0.24718 z m 9.30943,-3.02064 c -0.14904,-0.23999 -0.1828,-0.52408 -0.075,-0.63131 0.10775,-0.10725 0.30546,0.0891 0.43934,0.43633 0.27796,0.72089 0.041,0.8477 -0.3643,0.19498 z m 6.59415,-0.3819 c 0.13972,-0.22501 0.43904,-0.40911 0.66513,-0.40911 0.22609,0 0.29675,0.1841 0.15702,0.40911 -0.13973,0.22502 -0.43905,0.40911 -0.66514,0.40911 -0.22609,0 -0.29674,-0.18409 -0.15701,-0.40911 z m -5.96063,-0.86955 c 0,-0.45458 1.03255,-0.90352 1.61731,-0.7032 0.22616,0.0775 -0.0452,0.35366 -0.60306,0.61376 -0.56702,0.26438 -1.01425,0.30381 -1.01425,0.0894 z m 12.33233,-0.35778 c -0.54811,-0.35252 -0.54811,-0.39658 0,-0.39658 0.33914,0 0.8941,0.17846 1.23324,0.39658 0.5481,0.35252 0.5481,0.39658 0,0.39658 -0.33914,0 -0.8941,-0.17846 -1.23324,-0.39658 z m -7.58738,-1.60818 c -0.13008,-0.20946 -0.0485,-0.49647 0.18128,-0.6378 0.22977,-0.14133 0.41778,0.0301 0.41778,0.38084 0,0.71862 -0.24667,0.82442 -0.59906,0.25696 z m -8.44465,-3.05283 c 0,-0.0884 0.28708,-0.27042 0.63797,-0.40442 0.36582,-0.1397 0.53083,-0.0711 0.3868,0.16079 -0.2414,0.38873 -1.02477,0.57498 -1.02477,0.24363 z m 4.52185,-0.24832 c 0,-0.22501 0.1959,-0.40911 0.43534,-0.40911 0.23943,0 0.321,0.1841 0.18128,0.40911 -0.13973,0.22501 -0.33564,0.40911 -0.43535,0.40911 -0.0997,0 -0.18127,-0.1841 -0.18127,-0.40911 z m -5.75509,-0.81822 c -0.32604,-0.20054 -0.50032,-0.45667 -0.38727,-0.56917 0.11304,-0.11251 0.47231,-0.0405 0.79835,0.16006 0.32604,0.20054 0.50032,0.45667 0.38727,0.56918 -0.11304,0.1125 -0.47231,0.0405 -0.79835,-0.16007 z m -1.63802,-16.46671 c 0.005,-0.74435 0.0826,-0.80306 0.40479,-0.30683 0.51504,0.79317 0.51504,1.22733 0,1.22733 -0.22609,0 -0.40825,-0.41422 -0.40479,-0.9205 z m 19.31437,-1.27952 c 0,-0.085 0.32373,-0.40712 0.71939,-0.71594 0.65198,-0.50888 0.66653,-0.49441 0.1552,0.15446 -0.53702,0.68148 -0.87459,0.8982 -0.87459,0.56148 z m -19.28821,-9.49373 c 0.0197,-0.47659 0.11713,-0.57353 0.24836,-0.24717 0.11874,0.29533 0.10415,0.64819 -0.0325,0.78413 -0.1366,0.13594 -0.23375,-0.10569 -0.21591,-0.53696 z m -3.44094,-2.48717 c -0.12245,-0.19718 0.40938,-0.77083 1.18185,-1.27477 0.77246,-0.50394 1.40449,-0.73695 1.40449,-0.51778 0,0.21916 -0.41622,0.61661 -0.92493,0.88323 -0.50871,0.26661 -1.04054,0.66094 -1.18185,0.87629 -0.14215,0.21664 -0.35638,0.23139 -0.47956,0.033 z m -0.29121,-1.76 c 0,-0.2171 0.41622,-0.61208 0.92493,-0.87776 0.91996,-0.48044 0.92072,-0.47833 0.14182,0.39472 -0.86998,0.97513 -1.06675,1.06423 -1.06675,0.48304 z m 0.41932,-2.27439 c 0.286,-0.34296 0.60465,-0.53931 0.70812,-0.43634 0.28508,0.28372 -0.29415,1.05989 -0.79096,1.05989 -0.27258,0 -0.2414,-0.23474 0.0828,-0.62355 z m 2.54194,-2.63073 c 0.5672,-0.90388 0.96656,-0.79121 0.59658,0.16831 -0.13388,0.34721 -0.43577,0.6313 -0.67088,0.6313 -0.27055,0 -0.24327,-0.29352 0.0743,-0.79961 z m 30.15693,-2.59319 c 0.15438,-0.40347 0.38423,-0.63053 0.5108,-0.50457 0.12657,0.12596 2.6e-4,0.45607 -0.28067,0.73358 -0.40599,0.40104 -0.45321,0.35405 -0.23013,-0.22901 z m -32.29603,-7.72137 c 0,-0.26251 0.12171,-0.35616 0.27048,-0.20811 0.14877,0.14805 0.52298,0.0607 0.83157,-0.19423 0.44343,-0.36626 0.50679,-0.32262 0.30215,0.2081 -0.2949,0.7648 -1.4042,0.91825 -1.4042,0.19424 z m 3.38206,-17.71829 c 0.0463,-0.55712 0.32173,-1.10364 0.61201,-1.2145 0.29028,-0.11086 0.52778,-0.49589 0.52778,-0.85563 0,-0.48074 0.23151,-0.58095 0.87363,-0.37812 0.5879,0.1857 0.78164,0.12781 0.59236,-0.17699 -0.15973,-0.25719 -0.004,-0.45294 0.35959,-0.45294 0.3525,0 0.64089,0.20063 0.64089,0.44586 0,0.6438 -2.16057,2.82703 -2.79771,2.82703 -0.29669,0 -0.4251,0.1841 -0.28537,0.40911 0.13972,0.22501 0.0602,0.40911 -0.17668,0.40911 -0.23691,0 -0.39283,-0.45581 -0.3465,-1.01293 z m -0.50452,-2.66906 c 0,-0.22502 0.1959,-0.40912 0.43534,-0.40912 0.23943,0 0.321,0.1841 0.18128,0.40912 -0.13973,0.22501 -0.33564,0.40911 -0.43535,0.40911 -0.0997,0 -0.18127,-0.1841 -0.18127,-0.40911 z m 3.28863,-7.17754 c 0,-0.0475 0.27747,-0.31546 0.61661,-0.59557 0.50008,-0.41304 0.61662,-0.39673 0.61662,0.0863 0,0.32756 -0.27748,0.59557 -0.61662,0.59557 -0.33914,0 -0.61661,-0.0388 -0.61661,-0.0863 z m -2.28513,-1.60534 c -0.67731,-0.50984 -0.69584,-0.60262 -0.12256,-0.61367 0.37147,-0.007 0.78188,0.26315 0.91203,0.60066 0.29395,0.76236 0.20789,0.76377 -0.78947,0.013 z m -1.19258,-4.82695 c -0.0869,-0.27748 -0.26898,-1.17233 -0.40468,-1.98856 -0.20911,-1.25761 -0.11991,-1.51707 0.58457,-1.70042 0.6489,-0.16888 0.83135,-0.0182 0.83135,0.6863 0,0.49646 -0.22129,1.12288 -0.49175,1.39205 -0.38163,0.37979 -0.32268,0.61245 0.26321,1.03881 0.6924,0.50387 0.69779,0.57123 0.0651,0.81285 -0.39346,0.15026 -0.75771,0.0467 -0.8478,-0.24103 z m 2.83689,-4.17349 c -0.43888,-0.33035 -0.58938,-0.6065 -0.33445,-0.61366 0.25494,-0.007 0.6938,0.26314 0.97527,0.60066 0.64982,0.77924 0.38427,0.78464 -0.64082,0.013 z m -3.46996,-1.01163 c 0,-0.66176 -0.1611,-1.30228 -0.35799,-1.42338 -0.55777,-0.34308 -0.91133,-2.70036 -0.51162,-3.41119 0.31428,-0.5589 0.411,-0.54107 0.77285,0.1425 0.65078,1.22941 1.08465,5.89525 0.5482,5.89525 -0.2483,0 -0.45144,-0.54143 -0.45144,-1.20318 z m 15.82649,-12.29747 c -0.13973,-0.22501 -0.0581,-0.40911 0.18127,-0.40911 0.23945,0 0.43535,0.1841 0.43535,0.40911 0,0.22501 -0.0816,0.40911 -0.18128,0.40911 -0.0997,0 -0.29561,-0.1841 -0.43534,-0.40911 z m -17.9123,-1.69302 c -0.25874,-0.48113 -0.50804,-1.41546 -0.55401,-2.07627 -0.046,-0.66083 -0.27569,-1.32574 -0.51047,-1.4776 -0.23479,-0.15186 -0.52107,-0.78121 -0.63619,-1.39857 -0.24035,-1.28896 0.54677,-2.17171 1.58341,-1.77582 0.62302,0.23792 0.6156,0.31205 -0.082,0.81972 -0.57553,0.41882 -0.65596,0.69682 -0.32223,1.11379 0.56178,0.70192 1.57376,5.66955 1.15497,5.66955 -0.0897,0 -0.37473,-0.39366 -0.63346,-0.8748 z m 18.11784,-0.37668 c 0,-0.23829 0.18499,-0.31948 0.41108,-0.18041 0.22609,0.13906 0.41108,0.33403 0.41108,0.43326 0,0.0992 -0.18499,0.1804 -0.41108,0.1804 -0.22609,0 -0.41108,-0.19496 -0.41108,-0.43325 z m 8.84019,-2.01817 c -0.13863,-0.22323 -0.0627,-0.72951 0.16877,-1.12506 0.36099,-0.61692 0.42261,-0.5592 0.43333,0.40588 0.0131,1.17649 -0.17707,1.4036 -0.6021,0.71918 z m -9.55957,-1.91063 c -0.92724,-0.37235 -0.53808,-0.82002 0.71285,-0.82002 0.97565,0 1.13361,0.11164 0.77182,0.54549 -0.47951,0.57501 -0.65542,0.60754 -1.48467,0.27453 z m -12.43511,-10.16138 c 0,-0.33751 0.17918,-0.61366 0.39817,-0.61366 0.219,0 0.29171,0.27615 0.16157,0.61366 -0.13015,0.33752 -0.30933,0.61367 -0.39818,0.61367 -0.0889,0 -0.16156,-0.27615 -0.16156,-0.61367 z m 2.74051,0.34093 c -0.15072,-0.15001 -0.27404,-0.46298 -0.27404,-0.69549 0,-0.25635 0.19147,-0.2322 0.48644,0.0614 0.26754,0.26626 0.39086,0.57923 0.27405,0.69548 -0.11681,0.11626 -0.33571,0.0887 -0.48645,-0.0614 z m -11.05927,-4.44982 c 0.10618,-0.55275 0.35647,-1.00499 0.55621,-1.00499 0.19973,0 0.36314,-0.20665 0.36314,-0.4592 0,-0.33778 -0.14588,-0.33871 -0.55166,-0.004 -0.30342,0.2506 -0.67339,0.33451 -0.82216,0.18646 -0.42947,-0.42742 -0.3136,-3.74001 0.14059,-4.01937 0.22609,-0.13907 0.41108,0.12622 0.41108,0.58951 0,0.46331 0.17786,0.84238 0.39524,0.84238 0.4909,0 1.37677,3.14538 1.03903,3.68923 -0.13575,0.21861 -0.5793,0.57455 -0.98567,0.79099 -0.63437,0.33788 -0.71154,0.25142 -0.5458,-0.61146 z m 3.60892,0.65971 c -0.13008,-0.20946 -0.0485,-0.49647 0.18128,-0.6378 0.22978,-0.14133 0.41778,0.03 0.41778,0.38084 0,0.71862 -0.24667,0.82443 -0.59906,0.25696 z m 8.74599,-1.84095 c -2.00839,-1.04702 -2.80291,-1.67698 -2.80291,-2.22236 0,-0.45615 0.1191,-0.46698 0.61661,-0.0561 0.4022,0.33219 0.61662,0.3551 0.61662,0.0659 0,-0.24388 -0.7196,-0.63627 -1.59911,-0.87197 -2.55371,-0.68435 -5.44901,-2.49501 -6.16645,-3.85636 -0.36385,-0.69041 -1.30899,-1.90572 -2.10032,-2.7007 -1.2986,-1.30461 -1.49373,-1.84812 -1.29409,-3.60469 0.11055,-0.97273 0.78025,-0.11517 0.78025,0.99913 0,0.6007 0.3662,1.38648 0.81377,1.74619 0.44758,0.35969 1.39238,1.51093 2.09958,2.55829 1.19591,1.77117 4.9999,4.49524 4.9999,3.58046 0,-0.60948 2.12934,0.8514 3.50872,2.40723 1.11309,1.25548 1.47281,1.40742 3.33209,1.40742 1.14635,0 2.74186,-0.31055 3.54559,-0.69011 2.37128,-1.11988 5.60745,-4.29361 6.80001,-6.66884 0.6086,-1.21215 1.42773,-2.82656 1.82028,-3.58756 0.68852,-1.33478 0.61854,-2.64856 -0.14109,-2.64856 -0.2019,0 -0.36709,0.28702 -0.36709,0.63781 0,1.12171 -0.78076,0.20241 -1.05253,-1.23928 -0.32402,-1.71894 0.0572,-2.5055 0.88358,-1.82296 0.33981,0.28066 0.58002,0.30964 0.58002,0.07 0,-0.52791 -1.03536,-1.38809 -1.32446,-1.10037 -0.12161,0.12104 -0.34748,-0.28098 -0.50191,-0.89337 -0.20167,-0.79966 -0.0998,-1.21425 0.36171,-1.47127 0.63841,-0.35556 0.88498,-1.98504 0.3769,-2.49069 -0.14608,-0.14539 -0.3102,-0.82848 -0.36469,-1.51798 -0.0762,-0.96408 0.0563,-1.22823 0.57391,-1.14367 0.37015,0.0604 0.90368,-0.034 1.1856,-0.21004 0.39819,-0.24857 0.41885,-0.0746 0.0925,0.77955 -0.68383,1.79001 -0.51412,5.51974 0.35609,7.82547 0.57155,1.51441 0.66728,2.19263 0.33201,2.35239 -0.35006,0.16679 -0.34673,0.28323 0.013,0.45322 0.53068,0.2508 0.28251,2.9693 -0.33205,3.63733 -0.19665,0.21377 -0.35754,0.72004 -0.35754,1.12506 0,0.40502 -0.1657,0.7364 -0.36822,0.7364 -0.20253,0 -0.93246,0.87508 -1.62209,1.94461 -1.24287,1.92759 -3.70879,4.02097 -6.81605,5.78633 -1.86792,1.06123 -5.10006,1.40258 -6.47815,0.68413 z m 1.12792,-3.05543 c -0.15382,-0.24767 -0.0375,-0.46273 0.25844,-0.4779 0.77347,-0.0396 3.60236,-0.33318 5.16275,-0.53572 0.7348,-0.0954 1.336,-0.0333 1.336,0.13795 0,0.17127 -0.87868,0.41965 -1.95262,0.55198 -1.07394,0.13233 -2.53138,0.36061 -3.23877,0.50731 -0.77573,0.16087 -1.39713,0.088 -1.5658,-0.18362 z m -11.1247,-0.45032 c 0.13973,-0.22501 0.42812,-0.40911 0.64088,-0.40911 0.21274,0 0.38682,0.1841 0.38682,0.40911 0,0.22501 -0.2884,0.40911 -0.64089,0.40911 -0.35247,0 -0.52654,-0.1841 -0.38681,-0.40911 z m 9.24926,0 c -0.33914,-0.21812 -0.43164,-0.39658 -0.20554,-0.39658 0.22609,0 0.68855,0.17846 1.02769,0.39658 0.33914,0.21812 0.43163,0.39658 0.20554,0.39658 -0.22609,0 -0.68856,-0.17846 -1.02769,-0.39658 z m -6.25518,-3.98883 c -0.69977,-0.7984 -1.6756,-2.55694 -1.41886,-2.55694 0.091,0 0.65504,0.7364 1.25353,1.63644 1.14639,1.72402 1.21773,2.12122 0.16533,0.9205 z m 18.70082,-0.95092 c 0.4917,-0.91678 0.95607,-1.48156 1.03193,-1.25507 0.18538,0.55347 -1.0679,2.92193 -1.54614,2.92193 -0.20888,0 0.0225,-0.75008 0.51421,-1.66686 z m -12.44564,0.0304 c 0,-0.22501 0.19589,-0.40911 0.43534,-0.40911 0.23942,0 0.321,0.1841 0.18127,0.40911 -0.13973,0.22501 -0.33563,0.40911 -0.43535,0.40911 -0.0997,0 -0.18126,-0.1841 -0.18126,-0.40911 z m -13.56558,-1.63645 c 0,-0.22501 0.18498,-0.40911 0.41108,-0.40911 0.22609,0 0.41107,0.1841 0.41107,0.40911 0,0.22501 -0.18498,0.40911 -0.41107,0.40911 -0.2261,0 -0.41108,-0.1841 -0.41108,-0.40911 z m 5.18648,-1.0458 c -0.41294,-1.07096 -0.29158,-2.09548 0.30676,-2.58968 0.45473,-0.37559 0.52157,-0.26121 0.35479,0.60709 -0.11451,0.59614 0.0101,1.20245 0.28131,1.3693 0.3626,0.22302 0.33676,0.42338 -0.10125,0.78514 -0.46501,0.38408 -0.64111,0.34812 -0.84161,-0.17185 z m 5.76062,-3.93031 c -0.42045,-0.63926 -0.57479,-1.61353 -0.46583,-2.94064 0.13701,-1.66886 0.003,-2.15641 -0.84284,-3.06415 -1.56002,-1.67435 -1.12077,-3.08764 0.88866,-2.85935 1.05846,0.12024 1.21416,0.32545 1.4218,1.87376 0.12825,0.95629 0.0711,1.73872 -0.12702,1.73872 -0.19812,0 -0.24823,0.18031 -0.11138,0.4007 0.13687,0.22038 0.0211,1.15726 -0.25731,2.08196 -0.40318,1.33927 -0.40126,1.84842 0.009,2.50292 0.73301,1.16811 0.24381,1.42059 -0.51553,0.26608 z M 228.53348,112.07 c -0.81511,-0.44009 -1.12588,-0.92055 -1.11401,-1.72234 l 0.0164,-1.11199 0.66559,1.22733 c 0.36609,0.67503 0.95988,1.4516 1.31956,1.72572 0.88684,0.67586 0.4844,0.62204 -0.8876,-0.11872 z m 13.69448,0.43855 c 0,-0.22501 0.2716,-0.76647 0.60354,-1.20324 0.33195,-0.43678 0.60355,-0.61005 0.60355,-0.38503 0,0.22501 -0.2716,0.76647 -0.60355,1.20325 -0.33194,0.43677 -0.60354,0.61004 -0.60354,0.38502 z m -18.09607,-1.71365 c 0.37123,-1.63811 0.0977,-3.80934 -0.47997,-3.80934 -0.19783,0 -0.35969,-1.63573 -0.35969,-3.63494 0,-3.3174 -0.0808,-3.687854 -0.92493,-4.240554 -0.50871,-0.333068 -1.37349,-1.412825 -1.92175,-2.399438 l -0.99684,-1.79384 2.13123,2.250109 c 2.04281,2.156767 2.59397,3.163233 2.46441,4.500223 -0.17273,1.7822 0.10121,3.30199 0.54587,3.02851 0.32676,-0.20099 0.4024,-0.0132 0.24142,0.59942 -0.12892,0.49065 -0.0577,1.52913 0.15835,2.30773 0.26101,0.94082 0.24367,1.96665 -0.0517,3.05843 -0.55776,2.06146 -1.27,2.17954 -0.80637,0.13369 z m 17.90235,-2.11175 c -0.13743,-0.22132 -0.35895,-1.2001 -0.49226,-2.17505 -0.19619,-1.43481 -0.0724,-1.98707 0.64965,-2.8977 0.80751,-1.01849 2.44871,-1.66388 1.87278,-0.73647 -0.13272,0.21372 0.13384,0.58839 0.59235,0.83261 0.72358,0.3854 0.83533,0.32057 0.84617,-0.49086 0.0108,-0.80692 0.0677,-0.84082 0.4154,-0.24761 0.58963,1.00585 -0.34112,2.8727 -1.28378,2.57495 -0.45858,-0.14485 -0.95426,0.10797 -1.3701,0.69881 -0.35835,0.50919 -0.65156,0.68986 -0.65156,0.4015 0,-0.28836 -0.17792,-0.41485 -0.39537,-0.2811 -0.25219,0.15512 -0.24803,0.62886 0.0115,1.30821 0.40808,1.06821 0.27367,1.76705 -0.19477,1.01271 z m -15.17934,-0.743 c -0.15072,-0.15001 -0.27404,-0.93444 -0.27404,-1.74319 0,-2.11362 3.05726,-5.37235 5.00867,-5.33875 0.29748,0.005 -0.0851,0.3162 -0.85015,0.69128 -1.49113,0.73106 -3.02771,3.40928 -2.6271,4.57897 0.155,0.45257 0.009,0.40179 -0.47738,-0.16568 -0.67844,-0.79204 -0.69419,-0.76913 -0.49222,0.71595 0.21491,1.58025 0.18118,1.72812 -0.28778,1.26142 z m 25.24523,-3.6479 c 0.0197,-0.4766 0.11714,-0.57353 0.24836,-0.24717 0.11875,0.29532 0.10415,0.64818 -0.0324,0.78412 -0.1366,0.13595 -0.23376,-0.10568 -0.21591,-0.53695 z m -25.10819,-1.80691 c 0,-0.22501 0.18498,-0.40911 0.41107,-0.40911 0.2261,0 0.41108,0.1841 0.41108,0.40911 0,0.22501 -0.18498,0.40911 -0.41108,0.40911 -0.22609,0 -0.41107,-0.1841 -0.41107,-0.40911 z m 7.70705,-3.044602 c -0.39531,-0.287673 -0.71873,-0.773782 -0.71873,-1.08024 0,-0.366734 0.30837,-0.250308 0.90208,0.340568 1.02624,1.021328 0.90054,1.528434 -0.18335,0.739672 z m -0.743,-2.580674 c -0.22188,-2.805852 -0.20711,-3.375164 0.0876,-3.375164 0.37806,0 0.45077,0.333664 0.51258,2.352268 0.0224,0.731217 -0.098,1.329541 -0.26759,1.32961 -0.16957,6.8e-5 -0.31923,-0.137956 -0.33258,-0.306714 z m -0.79789,-5.250255 c 0,-0.356267 0.21967,-0.574886 0.48816,-0.485819 0.76222,0.252856 0.88865,1.133578 0.16272,1.133578 -0.35798,0 -0.65088,-0.291492 -0.65088,-0.647759 z m -0.41107,-3.467495 c 0,-0.23829 0.18498,-0.319473 0.41107,-0.180409 0.2261,0.139063 0.41108,0.33403 0.41108,0.433257 0,0.09923 -0.18498,0.180409 -0.41108,0.180409 -0.22609,0 -0.41107,-0.194967 -0.41107,-0.433257 z m 0,-2.382235 c 0,-0.225011 0.18498,-0.522886 0.41107,-0.66195 0.2261,-0.139063 0.41108,-0.06878 0.41108,0.156264 0,0.225011 -0.18498,0.522894 -0.41108,0.661958 -0.22609,0.139063 -0.41107,0.0687 -0.41107,-0.156272 z m -9.94296,-0.73686 c 0.29675,-0.118181 0.65131,-0.103649 0.7879,0.0323 0.13661,0.135944 -0.10619,0.232639 -0.53954,0.214877 -0.47888,-0.0196 -0.57628,-0.116579 -0.24836,-0.24718 z m 32.55224,-1.537387 c 0,-0.350795 0.18498,-0.637812 0.41108,-0.637812 0.22609,0 0.41107,0.173233 0.41107,0.384965 0,0.211732 -0.18498,0.498749 -0.41107,0.637812 -0.2261,0.139064 -0.41108,-0.03418 -0.41108,-0.384965 z m -36.78856,-0.633124 c -0.14402,-0.231915 0.021,-0.300492 0.38681,-0.160789 0.71216,0.271973 0.84246,0.565212 0.25116,0.565212 -0.21276,0 -0.49985,-0.181995 -0.63797,-0.404423 z m 31.80319,-1.538853 c -0.51133,-0.648875 -0.49679,-0.663348 0.1552,-0.154465 0.68476,0.534452 0.90251,0.870409 0.56418,0.870409 -0.0854,0 -0.40909,-0.322175 -0.71938,-0.715944 z M 218.21493,79.4333 c -1.29519,-1.093595 -1.56521,-1.61251 -1.77308,-3.407466 -0.24054,-2.077047 -0.26575,-2.110142 -1.32204,-1.736334 -1.03118,0.364918 -1.04197,0.354204 -0.25468,-0.252746 1.14752,-0.884642 2.47633,-1.152933 3.80247,-0.76773 0.62176,0.180605 1.31545,0.338641 1.54154,0.351188 0.62061,0.03443 1.11097,0.989647 0.7809,1.521159 -0.16939,0.272757 -0.11071,0.357997 0.14022,0.20366 0.23733,-0.145976 0.55333,0.05054 0.70224,0.436709 0.21295,0.552274 0.34258,0.586417 0.60741,0.159971 0.25301,-0.407407 0.54058,-0.433564 1.15707,-0.10521 0.45121,0.240327 0.9372,0.3207 1.07998,0.178611 0.14277,-0.142089 0.25959,-0.06333 0.25959,0.175176 0,0.497129 -0.95464,0.930181 -2.05053,0.930181 -0.50596,0 -0.69395,0.232998 -0.57766,0.715944 0.20772,0.862593 -0.11653,1.339224 -1.51024,2.219997 -1.01905,0.644009 -1.10786,0.62259 -2.58319,-0.62311 z m 34.82403,0.01781 c -0.70931,-0.719345 -1.4094,-1.825538 -1.55574,-2.45821 -0.31662,-1.368723 0.54789,-2.268051 3.59459,-3.739435 1.09035,-0.526559 1.81038,-1.063227 1.60008,-1.192575 -1.05171,-0.646889 -5.99419,1.962309 -6.45517,3.407757 -0.31816,0.997642 -1.14999,1.127432 -0.95996,0.149777 0.15469,-0.795797 4.69825,-4.066791 6.15409,-4.43044 0.72803,-0.181849 1.62105,0.164702 3.35817,1.303214 1.30151,0.853013 2.1566,1.620539 1.90018,1.7056 -0.25643,0.08506 -0.99563,-0.234864 -1.64268,-0.710958 -1.31448,-0.967189 -1.92555,-1.130288 -1.3272,-0.354239 0.21685,0.281264 0.34541,1.472697 0.28567,2.647637 -0.0802,1.577736 -0.39785,2.513628 -1.21491,3.57972 -1.35289,1.765244 -2.06994,1.78293 -3.73712,0.09215 z m -20.05997,-0.405011 c 0.15437,-0.403477 0.38422,-0.630534 0.51079,-0.50457 0.12657,0.125963 2.7e-4,0.456073 -0.28067,0.733586 -0.40599,0.40104 -0.4532,0.354043 -0.23012,-0.229016 z m -0.23196,-1.745207 c 0,-0.350796 0.18498,-0.524029 0.41107,-0.384965 0.2261,0.139064 0.41108,0.42608 0.41108,0.637812 0,0.211732 -0.18498,0.384965 -0.41108,0.384965 -0.22609,0 -0.41107,-0.287017 -0.41107,-0.637812 z m 7.3994,-2.430519 c -0.37048,-0.44426 -0.38039,-0.613666 -0.0359,-0.613666 0.34849,0 0.3581,-0.219028 0.0359,-0.818221 -0.24201,-0.450022 -0.30401,-0.818222 -0.13779,-0.818222 0.16621,0 0.0802,-0.22092 -0.19108,-0.490933 -0.75714,-0.753514 -0.5856,-1.223463 0.27856,-0.763188 0.81577,0.434493 1.40838,2.356376 0.83528,2.708876 -0.1859,0.114338 -0.23379,0.478148 -0.10643,0.808454 0.29877,0.774848 -0.0267,0.768566 -0.67854,-0.01312 z m -7.81048,-0.180409 c 0,-0.211732 0.18498,-0.498749 0.41108,-0.637812 0.22609,-0.139064 0.41107,0.03418 0.41107,0.384964 0,0.350796 -0.18498,0.637813 -0.41107,0.637813 -0.2261,0 -0.41108,-0.173233 -0.41108,-0.384965 z m -11.51843,-1.875031 c -0.79436,-0.952564 -0.22756,-1.13207 0.62258,-0.197175 0.41048,0.451394 0.55532,0.820728 0.32186,0.820728 -0.23345,0 -0.65845,-0.280599 -0.94444,-0.623553 z m -5.58334,-1.217429 c 0.37545,-1.54193 -0.70113,-2.295503 -3.53852,-2.47685 -3.54865,-0.226827 -5.27994,-0.916494 -6.87656,-2.739312 -0.73907,-0.843791 -1.16227,-1.534165 -0.94044,-1.534165 0.22182,0 0.65721,0.304668 0.9675,0.677035 0.80745,0.968962 3.37254,1.984222 3.56458,1.410853 0.0832,-0.248296 0.43305,-0.451445 0.77754,-0.451445 0.38786,0 0.53625,0.233653 0.38972,0.613666 -0.27043,0.701369 1.16412,0.886227 1.58743,0.204555 0.13973,-0.225011 0.46513,-0.409111 0.7231,-0.409111 0.33784,0 0.33106,0.137308 -0.0242,0.490933 -0.71794,0.714504 -0.60525,1.14551 0.29949,1.14551 0.80674,0 2.08476,-1.001656 2.08476,-1.633937 0,-0.619121 -2.61424,-1.184589 -4.83017,-1.044775 -1.18698,0.07492 -2.15815,-0.02813 -2.15815,-0.229 0,-0.363094 0.34925,-0.432396 2.63378,-0.522562 1.36653,-0.05395 2.02088,-1.069944 0.68909,-1.069944 -0.50162,0 -0.85642,-0.264234 -0.85642,-0.637812 0,-0.382792 -0.19229,-0.519537 -0.48094,-0.342 -0.32789,0.201683 -0.3933,0.06853 -0.20554,-0.418426 0.15147,-0.392832 0.2754,-1.130288 0.2754,-1.638796 0,-0.718859 0.35358,-1.029987 1.58924,-1.398426 1.93304,-0.576377 2.11046,-0.58248 2.11046,-0.07253 0,0.220724 -0.47169,0.519128 -1.04819,0.663135 -1.03927,0.259589 -1.04097,0.266859 -0.19866,0.85401 0.46724,0.325703 0.74302,0.763682 0.61286,0.9733 -0.3892,0.626724 0.49203,0.430632 1.04507,-0.232545 0.41912,-0.502593 0.39103,-0.613666 -0.1552,-0.613666 -0.36683,0 -0.66696,-0.1841 -0.66696,-0.409111 0,-0.46648 0.46452,-0.520014 1.4028,-0.161693 0.35666,0.136217 0.51749,0.458025 0.35782,0.715944 -0.15953,0.257689 0.21151,0.142107 0.82452,-0.256845 1.14663,-0.746243 1.51323,-0.376049 0.60071,0.606609 -1.49674,1.611795 -2.04127,2.368871 -1.70382,2.368871 0.20693,0 0.87497,-0.46025 1.48455,-1.022777 0.60958,-0.562527 1.39387,-1.022777 1.74288,-1.022777 0.34901,0 0.63455,-0.27615 0.63455,-0.613666 0,-0.337516 0.0773,-0.613666 0.17193,-0.613666 0.0945,0 0.51026,-0.129219 0.9238,-0.287145 0.71074,-0.271428 0.70841,-0.221047 -0.0425,0.9205 -0.43691,0.664199 -1.31423,1.759943 -1.94959,2.434976 -1.21046,1.286014 -1.43734,2.030629 -0.74795,2.454664 0.22609,0.139064 0.41108,0.518131 0.41108,0.842368 0,0.84841 -0.81416,0.729163 -0.86313,-0.126424 -0.0274,-0.477296 -0.15069,-0.375018 -0.37011,0.306833 -0.54229,1.685196 -0.45538,2.045554 0.4933,2.045554 0.7034,0 0.79476,0.109096 0.41107,0.490933 -0.87569,0.8715 -0.53078,1.162718 1.24433,1.050656 0.95569,-0.06034 1.74471,0.07441 1.75337,0.299409 0.009,0.225011 0.15976,0.634685 0.33576,0.910383 0.24186,0.378896 -0.29094,0.47877 -2.18232,0.40911 -2.27333,-0.0837 -2.48407,-0.167036 -2.30308,-0.910382 z m -0.98567,-5.932106 c 0,-0.225011 -0.19589,-0.409111 -0.43534,-0.409111 -0.23942,0 -0.321,0.1841 -0.18127,0.409111 0.13973,0.225011 0.33563,0.409111 0.43535,0.409111 0.0997,0 0.18126,-0.1841 0.18126,-0.409111 z m -1.23323,-0.818221 c 0,-0.225011 -0.17406,-0.409111 -0.38681,-0.409111 -0.21275,0 -0.50115,0.1841 -0.64088,0.409111 -0.13973,0.22501 0.0343,0.40911 0.38681,0.40911 0.35249,0 0.64088,-0.1841 0.64088,-0.40911 z m 18.80682,6.488189 c 0.28262,-0.283351 0.51385,-0.85909 0.51385,-1.279434 0,-0.709977 -0.0949,-0.697414 -1.336,0.176898 l -1.33601,0.941159 1.0277,-1.29977 c 1.16141,-1.468904 1.87886,-1.680653 2.13149,-0.629102 0.26875,1.118697 -0.0581,2.053651 -0.8189,2.341784 -0.55792,0.21134 -0.59405,0.161446 -0.18213,-0.251535 z m 8.50631,-0.52263 c -0.43852,-0.319124 -0.68856,-0.688457 -0.55564,-0.820736 0.13292,-0.132279 0.57751,0.128819 0.98799,0.580221 0.87332,0.960371 0.69396,1.060143 -0.43235,0.240515 z m -14.92812,-0.606072 c -0.31017,-0.195538 -0.49456,-0.56274 -0.40973,-0.815997 0.0863,-0.25768 0.38146,-0.09836 0.6702,0.361799 0.57589,0.91772 0.54904,0.964538 -0.26047,0.454198 z m 32.83356,-1.244234 c 0,-0.688312 0.18499,-1.251478 0.41108,-1.251478 0.22609,0 0.41108,0.449382 0.41108,0.998631 0,0.549248 -0.18499,1.112415 -0.41108,1.251478 -0.23983,0.147519 -0.41108,-0.268496 -0.41108,-0.998631 z m -18.22446,0.112224 c -0.40285,-0.400937 -0.3339,-1.772813 0.0891,-1.772813 0.19974,0 0.45157,0.46025 0.55963,1.022777 0.1903,0.990764 -0.0859,1.310135 -0.64873,0.750036 z m -9.31775,-1.040871 c 0,-0.347463 0.30775,-0.884421 0.68391,-1.19324 0.62559,-0.513596 0.63837,-0.474253 0.14986,0.461298 -0.71617,1.371527 -0.83377,1.474768 -0.83377,0.731942 z m -3.28863,-0.346977 c 0,-0.23829 0.18499,-0.319473 0.41108,-0.18041 0.22609,0.139064 0.41108,0.334031 0.41108,0.433257 0,0.09923 -0.18499,0.18041 -0.41108,0.18041 -0.22609,0 -0.41108,-0.194967 -0.41108,-0.433257 z m 16.23758,-2.021408 c 0.13972,-0.225011 0.33563,-0.409111 0.43534,-0.409111 0.0997,0 0.18128,0.1841 0.18128,0.409111 0,0.225011 -0.19591,0.409111 -0.43535,0.409111 -0.23943,0 -0.321,-0.1841 -0.18127,-0.409111 z m -16.23758,-0.409111 c 0,-0.225011 0.18499,-0.40911 0.41108,-0.40911 0.22609,0 0.41108,0.184099 0.41108,0.40911 0,0.225011 -0.18499,0.409111 -0.41108,0.409111 -0.22609,0 -0.41108,-0.1841 -0.41108,-0.409111 z m 3.28786,-0.615686 c -0.52254,-1.367768 -0.53472,-1.275914 0.29766,-2.24341 0.38938,-0.452596 1.05811,-0.822901 1.48605,-0.822901 0.7325,0 0.73918,0.05907 0.11418,1.008382 -0.36514,0.554618 -0.66389,1.3722 -0.66389,1.816852 0,1.272369 -0.78168,1.425086 -1.234,0.241077 z m 11.57261,0.227031 c 0.0904,-0.270013 0.29854,-0.477125 0.46246,-0.46025 0.49152,0.05063 0.39634,0.61174 -0.1336,0.787539 -0.27131,0.09 -0.4193,-0.05728 -0.32886,-0.327289 z m 15.81453,-2.314911 c -1.07156,-1.336547 -1.10074,-1.45005 -0.30831,-1.199751 0.51977,0.164181 0.87523,0.09911 0.87523,-0.160218 0,-0.240182 -0.18498,-0.436683 -0.41108,-0.436683 -0.22609,0 -0.41108,-0.20459 -0.41108,-0.454642 0,-0.29802 0.49566,-0.362097 1.43878,-0.186017 1.36201,0.254296 2.07056,-0.287076 0.92492,-0.706696 -0.28261,-0.103514 -0.005,-0.322917 0.61662,-0.48755 1.256,-0.332598 1.37411,-0.60389 0.61662,-1.416375 -0.42272,-0.453397 -0.36805,-0.494368 0.3083,-0.23102 0.45219,0.176071 1.28462,0.300287 1.84985,0.276022 l 1.0277,-0.04407 -0.92493,0.770271 c -0.89287,0.743567 -1.30462,1.5346 -0.56058,1.076967 0.51022,-0.313822 0.84386,1.193598 0.41372,1.869244 -0.27308,0.428936 -0.35584,0.436018 -0.36069,0.03085 -0.004,-0.398849 -0.20478,-0.420063 -0.82845,-0.08788 -0.45219,0.240847 -0.82216,0.615524 -0.82216,0.832617 0,0.464818 -1.50579,2.031167 -1.95261,2.031149 -0.16957,-8e-6 -0.84091,-0.66431 -1.49185,-1.476225 z m -39.49233,0.546939 c 0.11031,-0.286105 0.61321,-0.77056 1.11756,-1.076558 0.87455,-0.530617 0.87086,-0.506539 -0.0796,0.520193 -1.11276,1.202044 -1.33232,1.319731 -1.03797,0.556365 z m 11.48934,-1.52537 c 0.13972,-0.225011 0.43904,-0.40911 0.66513,-0.40911 0.2261,0 0.29675,0.184099 0.15703,0.40911 -0.13974,0.225011 -0.43905,0.409111 -0.66515,0.409111 -0.22609,0 -0.29674,-0.1841 -0.15701,-0.409111 z m -9.66034,-1.208598 c 0,-0.422876 0.9104,-1.17529 1.4285,-1.180591 0.22044,-0.0026 0.46977,-0.210045 0.55408,-0.46175 0.10294,-0.307319 -0.23124,-0.365634 -1.01742,-0.177537 l -1.1707,0.280087 0.96801,-1.050187 c 1.10196,-1.195532 0.85866,-2.041454 -0.49026,-1.704517 -0.64894,0.162093 -1.20284,-0.08814 -1.92742,-0.870767 l -1.01679,-1.098241 1.17368,0.599407 c 1.48791,0.759889 4.37587,0.142839 4.37587,-0.934971 0,-0.37605 0.29553,-1.387636 0.65672,-2.24797 0.57837,-1.377604 0.70669,-1.475373 1.07552,-0.819458 0.30713,0.54618 0.26904,0.837228 -0.14287,1.091542 -0.30893,0.190722 -0.57023,0.583025 -0.58067,0.871781 -0.0104,0.288747 -0.2422,0.928051 -0.51497,1.420671 -0.35415,0.639568 -0.36754,0.974655 -0.0468,1.171906 0.5101,0.313754 0.13997,2.950558 -0.52692,3.753762 -0.56734,0.683317 -2.79752,1.764981 -2.79752,1.356833 z m -12.03126,-1.280687 c 0.24716,-0.940614 0.40144,-1.017084 2.78201,-1.378831 l 1.64431,-0.249873 -2.22383,1.240773 c -1.22312,0.682431 -2.26945,1.240773 -2.32521,1.240773 -0.0558,0 -4.2e-4,-0.38378 0.12272,-0.852842 z m 17.73141,-0.458417 c -1.58688,-0.330161 -1.87046,-0.526935 -1.69914,-1.178964 0.20987,-0.798669 0.73568,-0.965978 2.60308,-0.828304 1.09495,0.08071 3.26179,-1.314107 3.26179,-2.099667 0,-0.247214 -0.32372,-0.829012 -0.71939,-1.292867 -0.6743,-0.79053 -0.67463,-0.808906 -0.005,-0.293281 0.39278,0.302563 0.99398,0.443237 1.33601,0.31262 0.76777,-0.293213 0.76946,-0.17937 0.0236,1.597083 -0.32901,0.783669 -0.82931,1.376087 -1.11177,1.316476 -0.28247,-0.05958 -0.52199,0.128452 -0.53227,0.417924 -0.0103,0.289471 -0.29616,0.700874 -0.6353,0.914234 -0.47044,0.295958 -0.32427,0.39284 0.61662,0.408685 l 1.23323,0.0208 -1.02769,0.584654 c -0.56523,0.321569 -1.12019,0.569431 -1.23323,0.550808 -0.11305,-0.01858 -1.0627,-0.212209 -2.11034,-0.43018 z m -18.03248,-1.296251 c 0,-0.3394 0.18498,-0.730868 0.41108,-0.869931 0.22609,-0.139064 0.40138,-0.472105 0.38952,-0.74009 -0.0119,-0.267985 -0.31191,-0.07304 -0.66675,0.433257 -0.79896,1.139868 -1.55762,1.221033 -0.95601,0.102277 0.35705,-0.663961 0.31263,-0.818221 -0.23563,-0.818221 -0.52595,0 -0.61495,-0.240677 -0.4017,-1.086249 0.17805,-0.706074 0.0857,-1.205027 -0.26375,-1.425623 -0.37739,-0.238196 -0.26194,-0.341241 0.38723,-0.345639 0.50871,-0.0034 0.92493,-0.190364 0.92493,-0.415375 0,-0.225011 -0.27748,-0.409111 -0.61662,-0.409111 -0.73978,0 -0.84024,-0.812562 -0.10277,-0.831228 0.31382,-0.0077 0.2338,-0.224585 -0.20554,-0.556493 -0.99245,-0.74978 -0.9008,-1.066944 0.30831,-1.066944 1.24201,0 1.25788,-0.146436 0.20042,-1.849257 -0.68546,-1.103789 -0.72601,-1.370845 -0.23657,-1.557766 0.6494,-0.248006 1.41856,0.75931 2.28912,2.997913 0.30626,0.787538 0.71853,1.644114 0.91618,1.90349 0.22212,0.291525 0.15657,0.539506 -0.17167,0.649412 -0.42939,0.143785 -0.43131,0.298063 -0.0101,0.806153 0.28652,0.345588 0.40546,0.927829 0.26433,1.293864 -0.14114,0.366035 -0.0692,0.665521 0.15996,0.665521 0.22911,0 0.31982,0.368199 0.20158,0.818221 -0.1567,0.596347 -0.007,0.826983 0.55233,0.850524 0.58712,0.02472 0.62251,0.08833 0.15072,0.270925 -0.33914,0.13124 -0.80161,0.466319 -1.0277,0.744608 -0.68767,0.846441 -2.26093,1.149661 -2.26093,0.435762 z m 18.90959,-1.483597 c 0,-0.225011 0.18498,-0.409111 0.41107,-0.409111 0.2261,0 0.41108,0.1841 0.41108,0.409111 0,0.225011 -0.18498,0.40911 -0.41108,0.40911 -0.22609,0 -0.41107,-0.184099 -0.41107,-0.40911 z m 36.25192,-0.02557 c 0.0989,-0.295327 0.42263,-0.617501 0.71939,-0.715944 0.30831,-0.102277 0.46246,0.05114 0.35969,0.357972 -0.0989,0.295327 -0.42265,0.617502 -0.71938,0.715944 -0.30831,0.102278 -0.46247,-0.05114 -0.3597,-0.357972 z m -13.34291,-1.858044 c -0.16486,-0.164071 -0.29973,-0.580597 -0.29973,-0.925614 0,-0.460488 0.12161,-0.506274 0.45732,-0.172167 0.25152,0.250325 0.38641,0.666851 0.29974,0.925613 -0.0867,0.258763 -0.29246,0.336238 -0.45733,0.172168 z m -1.32743,-4.662159 c -0.13973,-0.22501 -0.0582,-0.40911 0.18127,-0.40911 0.23945,0 0.43535,0.1841 0.43535,0.40911 0,0.225011 -0.0816,0.409111 -0.18128,0.409111 -0.0997,0 -0.29561,-0.1841 -0.43534,-0.409111 z m -42.95764,-0.818221 c 0,-0.225011 0.2884,-0.409111 0.64089,-0.409111 0.35247,0 0.52654,0.1841 0.3868,0.409111 -0.13972,0.225011 -0.42812,0.409111 -0.64087,0.409111 -0.21275,0 -0.38682,-0.1841 -0.38682,-0.409111 z m 20.95673,-0.214442 c -0.286,-0.342954 -0.44038,-0.702784 -0.34309,-0.799616 0.0973,-0.09683 0.40271,0.183768 0.67869,0.623553 0.5968,0.951072 0.39777,1.055489 -0.3356,0.176063 z m 19.32891,0.02821 c 0,-0.31568 1.22347,-0.569593 1.39712,-0.289957 0.10463,0.168468 -0.16693,0.333093 -0.60345,0.365813 -0.43652,0.03273 -0.79367,-8.52e-4 -0.79367,-0.07586 z m -18.40867,-4.321377 c -0.0194,-0.679081 0.13744,-1.128464 0.34852,-0.998631 0.47923,0.294764 0.50985,2.233327 0.0353,2.233327 -0.19169,0 -0.36439,-0.555615 -0.38379,-1.234696 z m 1.1434,-0.874287 c 0,-0.360034 0.27748,-0.88379 0.61661,-1.163903 0.33914,-0.280113 0.61662,-0.740362 0.61662,-1.022777 0,-0.282414 0.27256,-0.738607 0.6057,-1.013759 0.49286,-0.407091 0.48048,-0.244947 -0.0665,0.870409 -1.07818,2.19862 -1.77246,3.111312 -1.77246,2.33003 z m 15.46911,-1.026612 c 0.22572,-0.895058 0.15595,-1.044622 -0.39008,-0.836095 -0.36574,0.139678 -0.76136,0.09876 -0.87916,-0.09092 -0.2721,-0.438157 0.78786,-1.340528 1.1506,-0.97953 0.14876,0.148055 0.27049,0.05438 0.27049,-0.20811 0,-0.262512 0.27747,-0.477295 0.61661,-0.477295 0.33914,0 0.61662,-0.1841 0.61662,-0.409111 0,-0.225011 0.27748,-0.409111 0.61662,-0.409111 0.98454,0 0.71382,1.069842 -0.4653,1.838731 -0.81312,0.530233 -0.94736,0.788272 -0.54029,1.038647 0.44637,0.274556 0.44705,0.44657 0.004,0.977997 -0.82159,0.985215 -1.30632,0.769409 -1,-0.445198 z m -1.83745,-3.05679 c -0.48854,-0.179864 -0.88825,-0.435865 -0.88825,-0.568903 0,-0.133038 0.19384,-0.122657 0.43077,0.0231 0.23691,0.14572 0.73132,0.15016 1.09868,0.0099 0.58175,-0.222172 0.55701,-0.332394 -0.19183,-0.854393 -0.47828,-0.333391 -1.17982,-0.477066 -1.58112,-0.323811 -0.55248,0.21099 -0.66065,0.117951 -0.46195,-0.397358 0.14269,-0.370066 0.005,-0.926158 -0.30618,-1.235753 -0.66476,-0.661592 -0.81988,-5.597436 -0.1759,-5.597436 0.22764,0 0.29956,0.184099 0.15984,0.40911 -0.13974,0.225011 -0.0582,0.409111 0.18126,0.409111 0.23945,0 0.44123,-0.230125 0.44842,-0.511388 0.007,-0.281264 0.29945,-0.879588 0.64946,-1.32961 0.62171,-0.799343 0.63352,-0.794621 0.51176,0.204555 -0.17538,1.439226 0.43674,1.501317 1.3412,0.136055 1.03074,-1.555857 0.98716,-0.694985 -0.0505,0.998887 -1.28896,2.103979 -0.95958,2.466631 0.51092,0.562501 1.43498,-1.858147 1.95695,-1.760267 0.94581,0.17735 -0.82694,1.584673 -0.0978,1.771995 1.18566,0.304617 l 1.01167,-1.156633 -0.17341,3.026141 c -0.0954,1.664374 -0.28285,3.369309 -0.4166,3.788732 -0.34382,1.078084 -3.11032,2.337361 -4.22963,1.925276 z m 3.82158,-2.37067 c 0.13008,-0.209464 0.0679,-0.484557 -0.1382,-0.611313 -0.20609,-0.126765 -0.48078,0.04466 -0.61042,0.380839 -0.25557,0.662811 0.36206,0.852954 0.74862,0.230474 z m -18.68648,1.599402 c 0,-0.229835 -0.46781,-1.121407 -1.03958,-1.981272 -0.67434,-1.014118 -0.93864,-1.825163 -0.7523,-2.30845 0.20571,-0.533498 0.14243,-0.655967 -0.22285,-0.431288 -0.37484,0.230559 -0.47513,-0.04168 -0.37817,-1.026434 0.0726,-0.737115 0.36333,-1.415796 0.6461,-1.508178 0.31457,-0.102772 0.42336,0.06742 0.28028,0.438498 -0.12861,0.333562 -0.0281,0.732991 0.22327,0.887626 0.62412,0.383882 1.57724,-0.47312 1.73242,-1.557715 0.082,-0.573752 0.37501,-0.849936 0.82303,-0.776015 0.575,0.09488 0.66566,-0.153331 0.523,-1.431887 -0.16512,-1.479882 -0.15377,-1.469501 0.26312,0.240275 0.32108,1.316877 0.55657,1.666632 0.89521,1.32961 0.76279,-0.759139 0.99691,-0.536497 1.34741,1.281395 l 0.33524,1.738721 0.15769,-1.431888 c 0.19398,-1.761546 0.68967,-2.336994 1.4629,-1.69833 0.34821,0.287605 0.49412,0.90532 0.36842,1.559727 -0.18173,0.946137 -0.0963,1.054423 0.67412,0.853925 1.08263,-0.281758 1.11627,0.1018 0.1208,1.377339 -0.4188,0.536617 -1.07862,1.647796 -1.46627,2.469282 -0.38766,0.821477 -1.06267,1.586736 -1.50005,1.700563 -0.43737,0.113826 -0.71469,0.07722 -0.61624,-0.08123 0.0984,-0.158513 0.009,-0.555572 -0.19867,-0.882349 -0.25917,-0.407705 -0.37964,-0.433666 -0.38397,-0.08276 -0.003,0.281263 -0.35361,0.511388 -0.77811,0.511388 -0.4245,0 -1.0021,0.27615 -1.28356,0.613666 -0.58834,0.705512 -1.23324,0.807892 -1.23324,0.195785 z m 1.23324,-0.989861 c 0,-0.09923 -0.18499,-0.294193 -0.41108,-0.433256 -0.22609,-0.139064 -0.41108,-0.05787 -0.41108,0.180409 0,0.23829 0.18499,0.433257 0.41108,0.433257 0.22609,0 0.41108,-0.08123 0.41108,-0.18041 z m -1.49566,-1.660563 c -0.13015,-0.337517 -0.30933,-0.613666 -0.39818,-0.613666 -0.0889,0 -0.16155,0.276149 -0.16155,0.613666 0,0.337516 0.17918,0.613666 0.39817,0.613666 0.21899,0 0.2917,-0.27615 0.16156,-0.613666 z m 6.4223,-4.831198 c -0.005,-0.72872 -0.0808,-0.781589 -0.40479,-0.282687 -0.52338,0.806 -0.52338,1.753807 0,1.431888 0.2261,-0.139064 0.40825,-0.656205 0.40479,-1.149201 z m -2.66571,0.535535 c 0.13972,-0.225011 0.0582,-0.409111 -0.18128,-0.409111 -0.23945,0 -0.43534,0.1841 -0.43534,0.409111 0,0.225011 0.0815,0.409111 0.18127,0.409111 0.0997,0 0.29561,-0.1841 0.43535,-0.409111 z m -4.14015,-0.818222 c 0,-0.450022 0.14534,-0.818221 0.32299,-0.818221 0.17764,0 0.32299,0.368199 0.32299,0.818221 0,0.450022 -0.14535,0.818222 -0.32299,0.818222 -0.17765,0 -0.32299,-0.3682 -0.32299,-0.818222 z"
       style="display:inline;fill:#000000;stroke-width:0.410093" />
  </g>
</svg>
