<?xml version="1.0" encoding="UTF-8" standalone="no"?>
<svg
   xmlns:dc="http://purl.org/dc/elements/1.1/"
   xmlns:cc="http://creativecommons.org/ns#"
   xmlns:rdf="http://www.w3.org/1999/02/22-rdf-syntax-ns#"
   xmlns:svg="http://www.w3.org/2000/svg"
   xmlns="http://www.w3.org/2000/svg"
   version="1.1"
   id="svg5368"
   width="58.297688mm"
   height="108.2439mm"
   viewBox="0 0 220.33771 409.1108">
  <metadata
     id="metadata5374">
    <rdf:RDF>
      <cc:Work
         rdf:about="">
        <dc:format>image/svg+xml</dc:format>
        <dc:type
           rdf:resource="http://purl.org/dc/dcmitype/StillImage" />
        <dc:title></dc:title>
      </cc:Work>
    </rdf:RDF>
  </metadata>
  <defs
     id="defs5372" />
  <g
     id="layer4"
     style="display:inline">
    <path
       transform="translate(-114.76767,-5.1170044)"
       style="display:inline;fill:#000000;stroke-width:0.410093"
       d="m 289.09713,329.30321 c 0.0197,-0.4766 0.11713,-0.57354 0.24835,-0.24718 0.11875,0.29533 0.10415,0.64819 -0.0324,0.78413 -0.1366,0.13595 -0.23376,-0.10569 -0.21591,-0.53695 z m 0.57154,-5.81303 c 0.0637,-2.31587 0.2061,-4.30047 0.31639,-4.41023 0.38512,-0.38328 0.34788,6.61397 -0.0405,7.61314 -0.27875,0.71709 -0.35833,-0.20673 -0.27588,-3.20291 z m -88.78019,-6.22165 c 0.13973,-0.22501 0.33563,-0.40911 0.43534,-0.40911 0.0997,0 0.18127,0.1841 0.18127,0.40911 0,0.22501 -0.1959,0.40911 -0.43534,0.40911 -0.23943,0 -0.32101,-0.1841 -0.18127,-0.40911 z m 0.20554,-1.22733 c 0,-0.22501 0.18498,-0.40911 0.41107,-0.40911 0.2261,0 0.41108,0.1841 0.41108,0.40911 0,0.22501 -0.18498,0.40911 -0.41108,0.40911 -0.22609,0 -0.41107,-0.1841 -0.41107,-0.40911 z m 71.93862,-1.40774 c 0,-0.3508 0.18498,-0.63782 0.41107,-0.63782 0.2261,0 0.41108,0.17324 0.41108,0.38497 0,0.21173 -0.18498,0.49875 -0.41108,0.63781 -0.22609,0.13907 -0.41107,-0.0342 -0.41107,-0.38496 z m -39.65146,-0.60955 c -0.2808,-0.45216 0.36767,-0.9404 0.74726,-0.56263 0.39085,0.38898 0.31801,0.94347 -0.12394,0.94347 -0.21275,0 -0.49324,-0.17138 -0.62332,-0.38084 z m 21.62894,-0.84649 c 0,-0.56253 0.0933,-0.79265 0.20734,-0.51139 0.11404,0.28127 0.11404,0.74152 0,1.02278 -0.11404,0.28126 -0.20734,0.0511 -0.20734,-0.51139 z m -24.52404,-1.22733 c 0.13973,-0.22501 0.52062,-0.40911 0.84642,-0.40911 0.32579,0 0.59235,0.1841 0.59235,0.40911 0,0.22501 -0.38089,0.40911 -0.84641,0.40911 -0.46553,0 -0.73209,-0.1841 -0.59236,-0.40911 z m -24.87021,-5.67926 c 0,-0.22502 0.18499,-0.52289 0.41108,-0.66196 0.22609,-0.13906 0.41108,-0.0687 0.41108,0.15627 0,0.22501 -0.18499,0.52289 -0.41108,0.66195 -0.22609,0.13907 -0.41108,0.0687 -0.41108,-0.15626 z m 80.57126,-4.05387 c 0,-0.42954 -0.53872,-1.5211 -1.19714,-2.42568 -0.65843,-0.90458 -1.25414,-2.30308 -1.3238,-3.10777 -0.17545,-2.02671 0.35064,-2.34889 0.69187,-0.42371 0.15363,0.86678 0.81301,2.42054 1.46528,3.45278 1.26796,2.00661 1.42752,2.63108 0.77487,3.03252 -0.2261,0.13906 -0.41108,-0.0986 -0.41108,-0.52814 z m -72.42678,-0.365 c 0.29675,-0.11818 0.6513,-0.10365 0.7879,0.0323 0.1366,0.13595 -0.1062,0.23264 -0.53954,0.21488 -0.47888,-0.0196 -0.57629,-0.11658 -0.24836,-0.24717 z m 65.47091,-0.7774 c 0.0197,-0.47659 0.11713,-0.57353 0.24836,-0.24717 0.11874,0.29532 0.10414,0.64819 -0.0324,0.78413 -0.1366,0.13594 -0.23375,-0.10569 -0.2159,-0.53696 z m -63.74952,0.0779 c 0,-0.0884 0.27748,-0.26675 0.61662,-0.39627 0.33914,-0.12951 0.61661,-0.0572 0.61661,0.16079 0,0.21795 -0.27747,0.39627 -0.61661,0.39627 -0.33914,0 -0.61662,-0.0724 -0.61662,-0.16079 z m 15.80959,-3.54843 c -0.14903,-0.23998 -0.17225,-0.53456 -0.0516,-0.65463 0.29447,-0.29305 1.09621,0.2233 1.09621,0.706 0,0.52283 -0.70969,0.48793 -1.0446,-0.0514 z m 51.67395,-4.28596 c -0.68876,-1.50442 -0.55735,-1.82537 0.18739,-0.4577 0.34778,0.63867 0.55541,1.23777 0.4614,1.33134 -0.094,0.0936 -0.38597,-0.29957 -0.64879,-0.87364 z m -76.4948,-2.88035 c 0.0197,-0.47659 0.11713,-0.57353 0.24836,-0.24717 0.11875,0.29532 0.10415,0.64819 -0.0324,0.78413 -0.1366,0.13594 -0.23375,-0.10569 -0.2159,-0.53696 z m 20.93252,-0.17046 c -0.28302,-0.52629 -0.29334,-0.81822 -0.0289,-0.81822 0.22609,0 0.60908,0.3682 0.85108,0.81822 0.28302,0.52629 0.29334,0.81822 0.0289,0.81822 -0.22609,0 -0.60908,-0.3682 -0.85108,-0.81822 z m 28.18526,-1.51652 c -0.22309,-0.58307 -0.17587,-0.63006 0.23012,-0.22902 0.28094,0.27751 0.40724,0.60763 0.28067,0.73359 -0.12656,0.12596 -0.35642,-0.1011 -0.51079,-0.50457 z m -48.72665,-0.34856 c -0.007,-0.46327 0.27455,-1.19967 0.6254,-1.63645 0.61293,-0.76305 0.62707,-0.7541 0.36135,0.22864 -0.1521,0.56253 -0.43353,1.29893 -0.6254,1.63644 -0.27861,0.49011 -0.35137,0.44407 -0.36135,-0.22863 z m 9.85336,-0.15291 c 0,-0.24017 0.13874,-0.44107 0.30831,-0.44644 0.16957,-0.005 1.002,-0.17008 1.84985,-0.36603 0.84785,-0.19594 1.54154,-0.21151 1.54154,-0.0346 0,0.17693 -0.50871,0.44243 -1.13046,0.59002 -0.62176,0.14758 -1.45419,0.36404 -1.84985,0.48103 -0.39566,0.11698 -0.71939,0.0162 -0.71939,-0.22399 z m -2.60242,-2.3106 c 0.188,-0.48759 0.12272,-0.62089 -0.20526,-0.41915 -0.26452,0.16269 -0.48094,0.10085 -0.48094,-0.13745 0,-0.23829 0.38354,-0.43325 0.8523,-0.43325 0.93272,0 0.99071,1.23013 0.0724,1.53445 -0.34189,0.11329 -0.42177,-0.0692 -0.23845,-0.5446 z m -5.20806,-1.58953 c 0.84979,-1.08674 3.69744,-3.66126 4.26329,-3.85438 0.25526,-0.0871 0.002,0.34542 -0.56359,0.96121 -1.31822,1.43613 -4.5154,3.93632 -3.6997,2.89317 z m 62.40676,0.32021 c 0.29674,-0.11818 0.6513,-0.10365 0.7879,0.0323 0.1366,0.13594 -0.1062,0.23264 -0.53954,0.21487 -0.47889,-0.0196 -0.57629,-0.11657 -0.24836,-0.24717 z m -56.58676,-1.35698 c 0,-0.56252 0.0933,-0.79265 0.20734,-0.51138 0.11404,0.28126 0.11404,0.74151 0,1.02277 -0.11403,0.28127 -0.20734,0.0511 -0.20734,-0.51139 z m 5.89572,-1.22733 c -0.14466,-0.23295 0.20936,-0.40911 0.82216,-0.40911 0.6128,0 0.96682,0.17616 0.82215,0.40911 -0.13973,0.22501 -0.5097,0.40911 -0.82215,0.40911 -0.31245,0 -0.68242,-0.1841 -0.82216,-0.40911 z m 23.43144,-1.63644 c 0.13973,-0.22501 0.43904,-0.40911 0.66514,-0.40911 0.22609,0 0.29675,0.1841 0.15702,0.40911 -0.13974,0.22501 -0.43905,0.40911 -0.66514,0.40911 -0.22609,0 -0.29675,-0.1841 -0.15702,-0.40911 z m -22.40374,-0.40911 c 0,-0.22501 0.18498,-0.40911 0.41108,-0.40911 0.22609,0 0.41107,0.1841 0.41107,0.40911 0,0.22501 -0.18498,0.40911 -0.41107,0.40911 -0.2261,0 -0.41108,-0.1841 -0.41108,-0.40911 z m 1.93779,-0.52521 c 0.11867,-0.61783 0.37866,-1.22352 0.57776,-1.34598 0.57131,-0.3514 0.42173,0.81527 -0.21577,1.68294 -0.54004,0.73502 -0.56368,0.71301 -0.36199,-0.33696 z m -4.14029,-3.15138 c 0.19396,-0.18058 1.00009,-0.45916 1.79142,-0.61907 1.17255,-0.23696 1.34429,-0.19254 0.92815,0.24006 -0.28084,0.29195 -1.08697,0.57053 -1.79141,0.61907 -0.70444,0.0485 -1.12211,-0.0595 -0.92816,-0.24006 z m 13.50714,-0.82363 c -0.13974,-0.22501 0.12682,-0.40911 0.59235,-0.40911 0.46553,0 0.84642,0.1841 0.84642,0.40911 0,0.22501 -0.26656,0.40911 -0.59235,0.40911 -0.3258,0 -0.70669,-0.1841 -0.84642,-0.40911 z m 10.48248,-2.50238 c 0,-0.67722 -0.18742,-0.81716 -0.85999,-0.64212 -0.8247,0.21463 -0.83057,0.19146 -0.14314,-0.56451 0.91051,-1.00128 1.79123,-0.38922 1.51432,1.05239 -0.23952,1.247 -0.51119,1.32897 -0.51119,0.15424 z m -10.48248,-0.3614 c -0.13974,-0.22501 -0.0582,-0.40911 0.18127,-0.40911 0.23944,0 0.43534,0.1841 0.43534,0.40911 0,0.22502 -0.0816,0.40912 -0.18127,0.40912 -0.0997,0 -0.29561,-0.1841 -0.43534,-0.40912 z m -14.72209,-0.71594 c 0.14105,-0.39377 0.43537,-0.94607 0.65405,-1.22733 0.47256,-0.60781 2.35232,-0.68954 2.35232,-0.10228 0,0.22501 -0.24881,0.40911 -0.5529,0.40911 -0.3041,0 -0.88773,0.3682 -1.29695,0.81822 -0.91774,1.00925 -1.49983,1.06072 -1.15652,0.10228 z m 12.87224,0.10228 c 0,-0.33752 0.16519,-0.61367 0.36709,-0.61367 0.20191,0 0.47358,0.27615 0.60372,0.61367 0.14413,0.37381 8.2e-4,0.61366 -0.3671,0.61366 -0.33204,0 -0.60371,-0.27615 -0.60371,-0.61366 z m -1.23324,-1.43189 c 0,-0.45002 0.18499,-0.81822 0.41108,-0.81822 0.22609,0 0.41108,0.3682 0.41108,0.81822 0,0.45002 -0.18499,0.81822 -0.41108,0.81822 -0.22609,0 -0.41108,-0.3682 -0.41108,-0.81822 z m 21.78713,-0.40911 c 0,-0.22501 0.1959,-0.40911 0.43534,-0.40911 0.23944,0 0.32101,0.1841 0.18128,0.40911 -0.13974,0.22501 -0.33564,0.40911 -0.43534,0.40911 -0.0997,0 -0.18128,-0.1841 -0.18128,-0.40911 z m -29.18653,-0.79408 c 0,-0.4633 0.18499,-0.84236 0.41108,-0.84236 0.22609,0 0.41108,0.26528 0.41108,0.58952 0,0.32423 -0.18499,0.7033 -0.41108,0.84236 -0.22609,0.13907 -0.41108,-0.12621 -0.41108,-0.58952 z m -2.46646,-0.63781 c 0.28146,-0.33751 0.67408,-0.61366 0.87248,-0.61366 0.19841,0 0.36075,0.27615 0.36075,0.61366 0,0.35273 -0.37099,0.61367 -0.87249,0.61367 -0.72894,0 -0.78829,-0.10097 -0.36074,-0.61367 z m 7.29663,-1.29372 c 0.28261,-0.11349 0.74508,-0.11349 1.02769,0 0.28262,0.11349 0.0514,0.20635 -0.51385,0.20635 -0.56523,0 -0.79646,-0.0929 -0.51384,-0.20635 z m 8.17567,-0.75183 c 0.16148,-0.41881 -0.0232,-0.61367 -0.58158,-0.61367 -0.47247,0 -0.90903,-0.34573 -1.03319,-0.81822 -0.15595,-0.59351 -0.56071,-0.81822 -1.47381,-0.81822 -0.95006,0 -1.20078,-0.15052 -1.0222,-0.61367 0.24075,-0.62439 -0.68519,-0.87477 -1.22998,-0.33259 -0.15533,0.15459 -0.65678,0.30852 -1.11434,0.34207 -0.60326,0.0442 -0.76228,-0.11736 -0.57857,-0.58791 0.43083,-1.10352 0.60712,-4.53545 0.23297,-4.53545 -0.19478,0 -0.45091,-0.3682 -0.56916,-0.81822 -0.11825,-0.45003 -0.0531,-0.81823 0.14469,-0.81823 0.19784,0 0.24619,-0.29437 0.10746,-0.65417 -0.22084,-0.57276 -0.14249,-0.58597 0.62952,-0.10615 0.48497,0.30142 0.88175,0.95313 0.88175,1.44826 0,0.49512 0.2011,1.02391 0.44689,1.17509 0.24579,0.15118 0.35454,0.62634 0.24167,1.05591 -0.22142,0.84266 0.80736,2.04531 4.59714,5.37413 2.0318,1.78465 2.12047,1.9347 1.14337,1.9347 -0.77267,0 -0.99523,-0.16603 -0.82263,-0.61366 z m -10.122,-0.51139 c 0.004,-0.40857 0.13801,-0.5403 0.31309,-0.30683 0.16874,0.22501 0.47422,0.54718 0.67884,0.71594 0.20462,0.16876 0.0637,0.30683 -0.31309,0.30683 -0.38085,0 -0.68234,-0.31796 -0.67884,-0.71594 z m -3.58881,-1.12505 c 1.91244,-6.02415 2.44396,-7.88556 2.42403,-8.48905 -0.013,-0.39377 0.16045,-0.71595 0.38546,-0.71595 0.23686,0 0.35691,0.94736 0.28513,2.25011 -0.0682,1.23756 -0.24848,2.25011 -0.40066,2.25011 -0.51249,0 -1.68044,3.64421 -1.40057,4.37004 0.15246,0.3954 0.1457,0.58804 -0.015,0.42809 -0.16071,-0.15995 -0.57254,-0.0623 -0.91517,0.21703 -0.52701,0.42962 -0.58295,0.38182 -0.3632,-0.31038 z m 5.22683,-0.61367 c 0,-0.22501 0.18498,-0.40911 0.41108,-0.40911 0.22609,0 0.41107,0.1841 0.41107,0.40911 0,0.22501 -0.18498,0.40911 -0.41107,0.40911 -0.2261,0 -0.41108,-0.1841 -0.41108,-0.40911 z m -2.3722,-1.841 c -0.0468,-0.56253 0.0869,-1.02278 0.29715,-1.02278 0.63193,0 0.88544,0.73289 0.33053,0.95554 -0.40026,0.1606 -0.39538,0.21446 0.0217,0.2395 0.29596,0.0177 0.42378,0.2164 0.28405,0.44141 -0.44148,0.7109 -0.84536,0.44538 -0.93343,-0.61367 z m 30.53103,-1.02278 c -0.13973,-0.22501 -0.0691,-0.40911 0.15702,-0.40911 0.22609,0 0.5254,0.1841 0.66514,0.40911 0.13973,0.22501 0.0691,0.40911 -0.15702,0.40911 -0.2261,0 -0.52541,-0.1841 -0.66514,-0.40911 z m -29.51136,-0.536 c -0.33431,-0.2416 -0.26584,-0.28556 0.2089,-0.13412 0.38842,0.1239 0.81556,0.0492 0.94919,-0.16596 0.36848,-0.59337 1.01659,-0.46778 1.01659,0.19699 0,0.63618 -1.34858,0.7001 -2.17468,0.10309 z m 13.27379,-1.32914 c 0,-0.3508 0.18498,-0.52403 0.41107,-0.38497 0.2261,0.13907 0.41108,0.42608 0.41108,0.63782 0,0.21173 -0.18498,0.38496 -0.41108,0.38496 -0.22609,0 -0.41107,-0.28701 -0.41107,-0.63781 z m 16.67508,-0.87871 c -0.22309,-0.58306 -0.17587,-0.63005 0.23012,-0.22902 0.28094,0.27752 0.40724,0.60763 0.28067,0.73359 -0.12656,0.12596 -0.35642,-0.1011 -0.51079,-0.50457 z m -28.82017,-0.49958 c 0.12967,-0.20881 -0.13689,-0.49737 -0.59236,-0.64123 -0.91458,-0.28889 -1.13206,-1.02467 -0.30286,-1.02467 0.6385,0 1.96946,1.47196 1.63338,1.80642 -0.38995,0.38809 -0.99491,0.27292 -0.73816,-0.14052 z m 32.69898,-0.18572 c 0,-0.33752 0.18498,-0.72744 0.41108,-0.86651 0.22609,-0.13906 0.41107,0.0233 0.41107,0.36082 0,0.33752 -0.18498,0.72745 -0.41107,0.86651 -0.2261,0.13907 -0.41108,-0.0233 -0.41108,-0.36082 z m -21.92223,-2.04427 c -0.71674,-1.08866 -0.59812,-1.23614 0.59265,-0.73676 0.43919,0.18418 0.57028,0.53656 0.38823,1.0436 -0.25077,0.69841 -0.33675,0.67152 -0.98088,-0.30684 z m 12.2619,-0.25413 c -0.13973,-0.22501 -0.0582,-0.40911 0.18128,-0.40911 0.23943,0 0.43534,0.1841 0.43534,0.40911 0,0.22501 -0.0816,0.40911 -0.18128,0.40911 -0.0997,0 -0.29561,-0.1841 -0.43534,-0.40911 z m 7.06801,0.1475 c -0.32842,-0.32686 0.0428,-0.96572 0.56119,-0.96572 0.21275,0 0.38682,0.27615 0.38682,0.61367 0,0.63265 -0.48506,0.81278 -0.94801,0.35205 z m -21.64918,-1.56405 c -0.54621,-0.65574 -0.48673,-0.81955 0.61662,-1.69812 1.25898,-1.0025 2.24883,-1.26436 2.24883,-0.59489 0,0.20984 -0.36053,0.49542 -0.80118,0.6346 -0.52878,0.16703 -0.71467,0.47742 -0.54676,0.91291 0.16135,0.41846 0.0899,0.55862 -0.1954,0.38316 -0.2474,-0.15218 -0.51007,0.0304 -0.58371,0.4057 -0.12248,0.6243 -0.18534,0.62061 -0.7384,-0.0434 z m 6.43669,-0.075 c -0.58189,-0.5791 -0.25262,-1.37222 0.56968,-1.37222 0.57467,0 0.809,0.22216 0.71939,0.68204 -0.14673,0.75296 -0.84847,1.12868 -1.28907,0.69018 z m 9.37771,-0.96311 c -0.13973,-0.22501 -0.78718,-0.40911 -1.43877,-0.40911 -0.65159,0 -1.29904,-0.1841 -1.43877,-0.40911 -0.14763,-0.23772 0.2297,-0.39707 0.90066,-0.38036 1.44985,0.0361 2.358,0.43583 2.49073,1.0963 0.12337,0.61392 -0.16097,0.67052 -0.51385,0.10228 z m -17.88188,-2.04556 c 0,-0.22501 0.28839,-0.40911 0.64088,-0.40911 0.35248,0 0.52654,0.1841 0.38681,0.40911 -0.13973,0.22501 -0.42813,0.40911 -0.64088,0.40911 -0.21275,0 -0.38681,-0.1841 -0.38681,-0.40911 z m 7.3994,-0.53184 c 0,-0.29251 0.22198,-0.75276 0.49329,-1.02278 0.38367,-0.38183 0.31516,-0.4957 -0.30831,-0.51239 -0.74567,-0.02 -0.73706,-0.0663 0.12333,-0.66356 1.10718,-0.76864 1.19317,-1.34981 0.20554,-1.38929 -0.61178,-0.0245 -0.59641,-0.0787 0.10276,-0.36266 1.08,-0.43862 1.72323,0.17103 1.04216,0.98774 -0.41029,0.492 -0.41415,0.63101 -0.0175,0.63101 0.35877,0 0.308,0.30483 -0.17229,1.03433 -0.37453,0.56888 -0.56988,1.21323 -0.43409,1.43189 0.13578,0.21865 -0.0415,0.39755 -0.39399,0.39755 -0.35249,0 -0.64088,-0.23933 -0.64088,-0.53184 z m -3.90524,-0.28638 c 0.13973,-0.22501 0.33564,-0.40911 0.43534,-0.40911 0.0997,0 0.18128,0.1841 0.18128,0.40911 0,0.22501 -0.19591,0.40911 -0.43534,0.40911 -0.23944,0 -0.32102,-0.1841 -0.18128,-0.40911 z m -3.49416,-0.61366 c 0.28146,-0.33752 0.68729,-0.61367 0.90185,-0.61367 0.21456,0 0.11263,0.27615 -0.22651,0.61367 -0.33914,0.33751 -0.74498,0.61366 -0.90186,0.61366 -0.15688,0 -0.0549,-0.27615 0.22652,-0.61366 z m 2.87754,-0.77445 c 0,-0.0884 0.27748,-0.26676 0.61662,-0.39628 0.33914,-0.12951 0.61662,-0.0572 0.61662,0.16079 0,0.21795 -0.27748,0.39627 -0.61662,0.39627 -0.33914,0 -0.61662,-0.0724 -0.61662,-0.16078 z m -4.04459,-0.88482 c 0.0766,-0.38668 0.55557,-0.85598 1.06428,-1.04288 1.25728,-0.46193 1.16983,0.19823 -0.13935,1.05194 -1.00292,0.65399 -1.05625,0.65347 -0.92493,-0.009 z m 3.63351,-0.54315 c 0,-0.19878 0.46247,-0.4494 1.0277,-0.55693 0.68913,-0.13111 1.02769,-0.012 1.02769,0.36141 0,0.32133 -0.43477,0.55694 -1.02769,0.55694 -0.56523,0 -1.0277,-0.16264 -1.0277,-0.36142 z m -4.93293,-1.07047 c -0.30986,-0.37157 -0.34298,-0.61367 -0.0839,-0.61367 0.75513,0 1.72826,0.48536 1.72826,0.862 0,0.58536 -1.08584,0.42137 -1.64431,-0.24833 z m 4.44478,-0.48402 c 0.29674,-0.11818 0.6513,-0.10365 0.7879,0.0323 0.1366,0.13594 -0.1062,0.23263 -0.53954,0.21487 -0.47889,-0.0196 -0.57629,-0.11657 -0.24836,-0.24717 z m -1.3617,-0.70317 c 0.67828,-0.318 1.31031,-0.50315 1.40452,-0.41144 0.28905,0.28139 -0.1185,0.49873 -1.40536,0.74948 l -1.23239,0.24013 z m -3.62666,-0.10383 c -0.54254,-0.53994 -0.26864,-1.04284 0.42391,-0.77835 0.46118,0.17612 0.93479,-0.0382 1.37872,-0.62391 0.37192,-0.49071 0.8791,-0.82186 1.12706,-0.7359 0.62861,0.21792 -0.72409,1.84395 -1.79923,2.16278 -0.46854,0.13894 -0.97725,0.12787 -1.13046,-0.0246 z m 12.5338,-0.55132 c 0.21535,-0.64295 1.47392,-0.90208 1.80352,-0.37133 0.12728,0.20497 0.0507,0.37267 -0.17029,0.37267 -0.22094,0 -0.71956,0.12139 -1.10805,0.26975 -0.48056,0.18353 -0.64843,0.0969 -0.52518,-0.27109 z m -7.05729,-0.81688 c 0,-0.45002 0.0709,-0.81822 0.1576,-0.81822 0.0867,0 0.25434,0.3682 0.37259,0.81822 0.11825,0.45002 0.0473,0.81822 -0.15759,0.81822 -0.20493,0 -0.3726,-0.3682 -0.3726,-0.81822 z m -5.9912,-1.74757 c 0.0587,-0.73615 0.32732,-1.7487 0.59695,-2.25011 0.53504,-0.99495 1.09324,-1.25628 0.74296,-0.34784 -0.11956,0.3101 -0.01,0.77035 0.24377,1.02278 0.34085,0.33921 0.27884,0.45896 -0.23766,0.45896 -0.42477,0 -0.69883,0.32087 -0.69883,0.81823 0,0.45002 0.18499,0.81822 0.41108,0.81822 0.22609,0 0.41108,0.1841 0.41108,0.40911 0,0.22501 -0.35462,0.40911 -0.78803,0.40911 -0.63783,0 -0.7677,-0.25513 -0.68132,-1.33846 z m 15.24046,0.92935 c 0.13973,-0.22501 0.43904,-0.40911 0.66513,-0.40911 0.22609,0 0.29675,0.1841 0.15702,0.40911 -0.13973,0.22501 -0.43904,0.40911 -0.66514,0.40911 -0.22609,0 -0.29675,-0.1841 -0.15701,-0.40911 z m -11.30465,-0.88204 c 0,-0.1644 0.34074,-0.53946 0.7572,-0.83349 0.41645,-0.29402 0.86431,-0.81073 0.99524,-1.14825 0.19464,-0.50178 0.24396,-0.48753 0.2705,0.0781 0.0178,0.38049 -0.15253,0.80558 -0.37862,0.94465 -0.64775,0.39841 -0.47916,1.0231 0.20553,0.76161 0.33914,-0.12952 0.61662,-0.0288 0.61662,0.2239 0,0.25846 -0.53937,0.41847 -1.23323,0.36586 -0.67828,-0.0514 -1.23324,-0.22803 -1.23324,-0.39241 z m -0.95918,-2.66359 c -0.15073,-0.15 -0.27405,-0.54889 -0.27405,-0.8864 0,-0.74176 0.53572,-0.28983 0.66066,0.55732 0.0984,0.66699 0.02,0.73371 -0.38661,0.32908 z m 11.01369,-0.98181 c -0.14903,-0.23998 -0.1828,-0.52407 -0.075,-0.63131 0.10775,-0.10724 0.30545,0.0891 0.43934,0.43633 0.27796,0.7209 0.0411,0.8477 -0.3643,0.19498 z m 25.52923,-0.42295 c 0.36284,-0.58429 2.6465,-1.66021 2.6465,-1.24687 0,0.20323 -0.23123,0.54957 -0.51384,0.76963 -0.71128,0.55385 -2.41732,0.93562 -2.13266,0.47724 z m -40.40111,-0.65843 c -0.34848,-0.90378 0.10594,-1.0053 0.84785,-0.18943 0.61709,0.67862 0.61973,0.75255 0.0268,0.75255 -0.36163,0 -0.75523,-0.25341 -0.87465,-0.56312 z m 3.2532,-0.7324 c 0.008,-0.67503 0.10051,-0.90165 0.20474,-0.5036 0.10422,0.39805 0.0974,0.95035 -0.0153,1.22733 -0.11261,0.27698 -0.19789,-0.0487 -0.18951,-0.72373 z m 9.37465,-0.61366 c 0,-0.22502 0.2884,-0.40912 0.64088,-0.40912 0.35248,0 0.52655,0.1841 0.38682,0.40912 -0.13974,0.22501 -0.42813,0.40911 -0.64088,0.40911 -0.21275,0 -0.38682,-0.1841 -0.38682,-0.40911 z m -12.74341,-0.61367 c 0,-0.33752 0.0727,-0.61367 0.16156,-0.61367 0.0889,0 0.26803,0.27615 0.39818,0.61367 0.13014,0.33752 0.0574,0.61367 -0.16156,0.61367 -0.219,0 -0.39818,-0.27615 -0.39818,-0.61367 z m 0.63088,-0.99981 c -0.17423,-0.28056 -0.0797,-0.95101 0.21012,-1.48989 0.43912,-0.81658 0.42522,-1.09972 -0.0834,-1.69971 -0.40091,-0.47291 -0.52297,-1.14103 -0.35574,-1.94725 l 0.25458,-1.22734 0.45584,1.43189 c 0.81112,2.54787 0.92185,3.96371 0.36886,4.71634 -0.40203,0.54718 -0.6115,0.60038 -0.85023,0.21596 z m 42.56475,-1.07984 c 0.0197,-0.47659 0.11713,-0.57353 0.24835,-0.24717 0.11875,0.29533 0.10415,0.64819 -0.0324,0.78413 -0.1366,0.13595 -0.23375,-0.10569 -0.21591,-0.53696 z m -36.28438,-0.85904 c 0.29674,-0.11818 0.6513,-0.10365 0.7879,0.0323 0.13659,0.13594 -0.1062,0.23264 -0.53954,0.21487 -0.47889,-0.0196 -0.57629,-0.11657 -0.24836,-0.24717 z m 12.82049,-3.32473 c 0,-0.52738 1.60715,-1.88759 1.89353,-1.60258 0.1343,0.13366 0.12287,0.43837 -0.0254,0.67714 -0.38522,0.6203 -1.86813,1.35491 -1.86813,0.92544 z m -18.67762,-1.18521 c -0.22308,-0.58306 -0.17586,-0.63005 0.23012,-0.22902 0.28094,0.27752 0.40725,0.60763 0.28068,0.73359 -0.12657,0.12596 -0.35642,-0.10109 -0.5108,-0.50457 z m 39.83122,-0.96536 c -0.14903,-0.23998 -0.1828,-0.52407 -0.075,-0.63131 0.10775,-0.10724 0.30545,0.0891 0.43934,0.43633 0.27796,0.7209 0.0411,0.8477 -0.3643,0.19498 z m -40.42389,-0.38189 c -0.0339,-0.33752 -0.16429,-1.07392 -0.28981,-1.63645 -0.19725,-0.88405 -0.16494,-0.92407 0.2382,-0.29506 0.25652,0.40023 0.38693,1.13663 0.2898,1.63644 -0.0971,0.4998 -0.20432,0.63258 -0.23819,0.29507 z m 39.28851,-2.6155 c -0.16821,-0.42598 -0.20899,-0.87088 -0.0906,-0.98868 0.37493,-0.37314 0.70482,0.23833 0.54772,1.01521 -0.14397,0.71199 -0.16596,0.71072 -0.45709,-0.0265 z m -30.91179,-2.29383 c 0.13974,-0.22501 0.33564,-0.40911 0.43534,-0.40911 0.0997,0 0.18128,0.1841 0.18128,0.40911 0,0.22501 -0.1959,0.40911 -0.43534,0.40911 -0.23944,0 -0.32101,-0.1841 -0.18128,-0.40911 z m 14.79881,-1.22733 c 0.13973,-0.22502 0.33563,-0.40912 0.43534,-0.40912 0.0997,0 0.18127,0.1841 0.18127,0.40912 0,0.22501 -0.1959,0.40911 -0.43534,0.40911 -0.23943,0 -0.32101,-0.1841 -0.18127,-0.40911 z m -23.08065,-0.91359 c 0.0746,-0.48631 0.34988,-0.9553 0.61179,-1.04218 0.70936,-0.23533 0.57672,1.42073 -0.13559,1.69276 -0.44551,0.17014 -0.57494,-0.007 -0.4762,-0.65058 z m -2.57926,-0.9615 c 0.0197,-0.4766 0.11713,-0.57354 0.24835,-0.24718 0.11875,0.29533 0.10415,0.64819 -0.0324,0.78413 -0.1366,0.13595 -0.23376,-0.10569 -0.21591,-0.53695 z m 13.12203,0.23864 c 0,-0.22501 0.19591,-0.40911 0.43534,-0.40911 0.23944,0 0.32101,0.1841 0.18128,0.40911 -0.13973,0.22501 -0.33564,0.40911 -0.43534,0.40911 -0.0997,0 -0.18128,-0.1841 -0.18128,-0.40911 z m -1.43877,-0.40911 c 0.13973,-0.22501 0.33564,-0.40911 0.43534,-0.40911 0.0997,0 0.18128,0.1841 0.18128,0.40911 0,0.22501 -0.19591,0.40911 -0.43534,0.40911 -0.23944,0 -0.32101,-0.1841 -0.18128,-0.40911 z m 17.05973,-0.0128 c 0,-0.52732 1.17119,-1.0035 1.54737,-0.62913 0.15327,0.15254 0.007,0.44861 -0.32604,0.65794 -0.79575,0.50085 -1.22133,0.49081 -1.22133,-0.0288 z m -27.36093,-0.84445 c -0.14499,-0.23346 -0.19884,-0.47596 -0.11968,-0.53886 0.30167,-0.23972 2.81594,-1.39987 2.81594,-1.29934 0,0.0581 -0.54735,0.59092 -1.21633,1.18413 -0.73624,0.65286 -1.32037,0.91102 -1.47993,0.65407 z m -1.96262,-0.23368 c -0.15073,-0.15 -0.27405,-1.21031 -0.27405,-2.35624 0,-1.64045 0.17483,-2.19218 0.82215,-2.59451 0.95509,-0.59361 1.11569,-0.0285 0.20554,0.72328 -1.02344,0.84532 -0.69193,1.37055 0.41108,0.65129 1.26223,-0.82309 1.38115,-0.12585 0.12757,0.74799 -0.49507,0.3451 -0.77368,0.75329 -0.61914,0.9071 0.15455,0.1538 0.65209,-0.0546 1.10566,-0.46311 0.45358,-0.40851 0.82468,-0.59364 0.82468,-0.41138 0,0.18225 0.36997,-0.002 0.82216,-0.40911 0.45218,-0.40727 0.81896,-0.57387 0.81505,-0.37024 -0.009,0.48426 -1.59164,1.95161 -2.77919,2.5772 -0.51504,0.27132 -0.82785,0.66817 -0.69512,0.88189 0.27317,0.43989 -0.34666,0.53358 -0.76639,0.11585 z m 2.80903,-4.63658 c 0.13973,-0.22501 0.43904,-0.40911 0.66514,-0.40911 0.22609,0 0.29675,0.1841 0.15702,0.40911 -0.13974,0.22501 -0.43905,0.40911 -0.66514,0.40911 -0.22609,0 -0.29675,-0.1841 -0.15702,-0.40911 z m -3.48502,-1.02664 c -0.005,-0.45215 0.36083,-1.05204 0.81301,-1.33308 1.03773,-0.64497 1.03773,-0.18792 0,1.13239 -0.73989,0.94137 -0.8046,0.95735 -0.81301,0.20069 z m 2.59435,-0.38176 c 0,-0.84838 1.78252,-2.94863 2.17426,-2.56182 0.18128,0.17899 0.0802,0.72293 -0.2247,1.20875 -0.39858,0.63519 -0.42236,0.92708 -0.0846,1.03911 0.75867,0.25169 0.0876,0.90414 -0.93,0.90414 -0.54045,0 -0.93492,-0.24901 -0.93492,-0.59018 z m 24.93872,-0.2152 c 0,-0.21795 0.27748,-0.29031 0.61662,-0.16079 0.33914,0.12952 0.61662,0.30784 0.61662,0.39627 0,0.0884 -0.27748,0.16079 -0.61662,0.16079 -0.33914,0 -0.61662,-0.17832 -0.61662,-0.39627 z m -8.83817,-0.42195 c -0.32154,-0.51777 0.22265,-0.51777 1.02769,0 0.5314,0.34177 0.52055,0.39744 -0.0785,0.40284 -0.38232,0.003 -0.80946,-0.17783 -0.94919,-0.40284 z m 2.05539,0 c -0.13974,-0.22501 0.11591,-0.40911 0.5681,-0.40911 0.45218,0 0.93648,0.1841 1.07621,0.40911 0.13973,0.22501 -0.11591,0.40911 -0.5681,0.40911 -0.45218,0 -0.93648,-0.1841 -1.07621,-0.40911 z m 12.13987,-1.70526 c -0.007,-0.37537 -0.12141,-0.96344 -0.25381,-1.30683 -0.17201,-0.4461 0.004,-0.60599 0.61662,-0.56006 1.00787,0.0755 1.09139,0.65315 0.2538,1.75523 -0.52063,0.68505 -0.60533,0.70038 -0.61661,0.11166 z m -7.61802,-0.3403 c -0.13973,-0.22501 -0.0691,-0.40911 0.15702,-0.40911 0.2261,0 0.52541,0.1841 0.66514,0.40911 0.13973,0.22501 0.0691,0.40911 -0.15702,0.40911 -0.22609,0 -0.5254,-0.1841 -0.66514,-0.40911 z m -17.98465,-0.68005 c 0.28262,-0.1135 0.74508,-0.1135 1.02769,0 0.28262,0.11349 0.0514,0.20635 -0.51384,0.20635 -0.56524,0 -0.79647,-0.0929 -0.51385,-0.20635 z m -6.0634,-3.2065 c 0.28146,-0.33752 0.69673,-0.61367 0.92283,-0.61367 0.22931,0 0.18479,0.27135 -0.10067,0.61367 -0.28146,0.33752 -0.69673,0.61367 -0.92283,0.61367 -0.22931,0 -0.18479,-0.27135 0.10067,-0.61367 z m -1.23323,-0.43326 c 0,-0.35079 0.188,-0.52217 0.41778,-0.38084 0.22978,0.14133 0.31136,0.42835 0.18128,0.63781 -0.35239,0.56746 -0.59906,0.46165 -0.59906,-0.25697 z m 1.28921,-1.1278 c -0.0308,-0.40856 0.13551,-1.09894 0.36956,-1.53417 0.33483,-0.62263 0.29101,-0.79132 -0.20554,-0.79132 -0.93071,0 -0.76689,-0.7171 0.29276,-1.28149 0.56936,-0.30326 0.72708,-0.55732 0.41107,-0.66215 -0.85781,-0.28457 -0.57345,-0.71206 0.51524,-0.77458 1.20051,-0.0689 1.26082,0.15894 0.3751,1.41743 -0.5279,0.75008 -0.5542,1.04445 -0.13793,1.54362 0.42732,0.51244 0.36771,0.65497 -0.3523,0.84235 -0.47667,0.12406 -0.94436,0.62101 -1.03932,1.10435 -0.13328,0.67839 -0.18542,0.7094 -0.22864,0.13596 z m 10.63205,-2.68689 c 0,-0.4819 1.58799,-0.87849 1.84707,-0.46128 0.11198,0.1803 -0.088,0.43917 -0.44428,0.57526 -0.91066,0.34778 -1.40279,0.30779 -1.40279,-0.11398 z m 21.05217,-0.46988 c -0.27405,-0.43673 -0.48255,-1.48694 -0.46332,-2.33378 0.0332,-1.46176 0.0626,-1.42579 0.5814,0.71039 0.61373,2.52719 0.59662,2.76234 -0.11808,1.62339 z m -1.93706,-0.80517 c -0.13973,-0.22501 -0.0582,-0.40911 0.18128,-0.40911 0.23944,0 0.43534,0.1841 0.43534,0.40911 0,0.22502 -0.0816,0.40912 -0.18128,0.40912 -0.0997,0 -0.2956,-0.1841 -0.43534,-0.40912 z m -26.73115,-0.39124 c 0.13363,-0.21518 0.51452,-0.28754 0.84642,-0.16078 0.84974,0.32451 0.74961,0.55202 -0.24297,0.55202 -0.46553,0 -0.73708,-0.17606 -0.60345,-0.39124 z m 11.1102,-2.88164 c 0.13973,-0.22501 0.33563,-0.40911 0.43534,-0.40911 0.0997,0 0.18127,0.1841 0.18127,0.40911 0,0.22501 -0.1959,0.40911 -0.43534,0.40911 -0.23943,0 -0.32101,-0.1841 -0.18127,-0.40911 z m 0.20554,-1.63644 c 0,-0.22502 0.1959,-0.40912 0.43534,-0.40912 0.23943,0 0.32101,0.1841 0.18127,0.40912 -0.13973,0.22501 -0.33563,0.40911 -0.43534,0.40911 -0.0997,0 -0.18127,-0.1841 -0.18127,-0.40911 z m 3.08308,-4.90933 c -0.13973,-0.22501 0.0453,-0.40911 0.41108,-0.40911 0.36582,0 0.55081,0.1841 0.41108,0.40911 -0.13974,0.22501 -0.32472,0.40911 -0.41108,0.40911 -0.0864,0 -0.27135,-0.1841 -0.41108,-0.40911 z m 11.74817,-0.64776 c 0.0197,-0.47659 0.11713,-0.57353 0.24836,-0.24717 0.11875,0.29532 0.10415,0.64818 -0.0324,0.78413 -0.1366,0.13594 -0.23376,-0.10569 -0.21591,-0.53696 z m -20.72337,-0.85232 c -0.15073,-0.15 -0.27405,-0.46297 -0.27405,-0.69549 0,-0.25635 0.19147,-0.23219 0.48644,0.0614 0.26754,0.26627 0.39087,0.57924 0.27405,0.69549 -0.11681,0.11626 -0.33571,0.0886 -0.48644,-0.0614 z m 9.42998,-0.78422 c -0.15363,-0.39844 -0.0618,-0.58547 0.23863,-0.48582 0.6145,0.20385 0.95284,1.13367 0.41252,1.13367 -0.22074,0 -0.51376,-0.29153 -0.65115,-0.64785 z m -9.62524,-1.78035 c 0.27326,-0.43547 0.63672,-0.70572 0.80769,-0.60056 0.48592,0.29888 -0.0861,1.39232 -0.72841,1.39232 -0.4668,0 -0.48184,-0.15024 -0.0793,-0.79176 z m 19.65924,0.50907 c 0.003,-0.18204 0.18561,-0.60713 0.40478,-0.94464 0.34342,-0.52886 0.39936,-0.51806 0.40479,0.0781 0.003,0.38049 -0.1787,0.80558 -0.40479,0.94464 -0.22609,0.13907 -0.40824,0.10391 -0.40478,-0.0781 z m -21.64476,-0.74009 c -0.13015,-0.33751 -0.49431,-0.61366 -0.80926,-0.61366 -0.31495,0 -0.57263,-0.1841 -0.57263,-0.40911 0,-0.22501 0.27747,-0.40911 0.61661,-0.40911 0.33914,0 0.61662,-0.26529 0.61662,-0.58953 0,-0.7345 0.6795,-1.18295 1.25557,-0.82862 0.28659,0.17627 0.20637,0.61143 -0.23678,1.28453 -0.3686,0.55986 -0.56944,1.27922 -0.44631,1.59856 0.12313,0.31933 0.13138,0.58061 0.0183,0.58061 -0.11304,0 -0.31201,-0.27615 -0.44215,-0.61367 z m 9.99126,-0.47729 c -0.15073,-0.15001 -0.27405,-0.46298 -0.27405,-0.69549 0,-0.25635 0.19146,-0.2322 0.48644,0.0614 0.26754,0.26627 0.39087,0.57924 0.27405,0.69549 -0.11682,0.11626 -0.33571,0.0886 -0.48644,-0.0614 z m -13.223,-1.36371 c -0.13974,-0.22501 -0.12695,-0.61379 0.0284,-0.86396 0.15536,-0.25017 0.0928,-0.57234 -0.13891,-0.71594 -0.53456,-0.33122 -0.71974,-1.70003 -0.34479,-2.54859 0.24293,-0.54979 0.65005,-0.59449 2.61766,-0.28742 1.28149,0.2 2.37514,0.40856 2.43032,0.46348 0.0552,0.0549 -0.43615,0.72541 -1.09184,1.48998 -0.6557,0.76458 -1.0995,1.53936 -0.98624,1.72174 0.11326,0.18238 -0.18588,0.3316 -0.66475,0.3316 -0.47888,0 -0.75635,0.1841 -0.61662,0.40911 0.13973,0.22502 -0.0234,0.40912 -0.36256,0.40912 -0.33914,0 -0.73094,-0.1841 -0.87067,-0.40912 z m 4.57873,-2.65922 c 0.13015,-0.33751 0.37098,-0.61366 0.5352,-0.61366 0.16423,0 0.29859,0.27615 0.29859,0.61366 0,0.33752 -0.24084,0.61367 -0.5352,0.61367 -0.30685,0 -0.43425,-0.26183 -0.29859,-0.61367 z m 19.0907,-1.26142 c 0.0197,-0.47659 0.11713,-0.57353 0.24835,-0.24717 0.11875,0.29532 0.10415,0.64819 -0.0324,0.78413 -0.1366,0.13594 -0.23376,-0.10569 -0.21591,-0.53696 z m -8.80212,-2.89787 c -0.4428,-0.44068 -0.31371,-1.84549 0.14373,-1.56413 0.22978,0.14133 0.31039,0.4299 0.17913,0.64127 -0.13126,0.21136 0.18945,0.55518 0.71268,0.76402 0.89577,0.35754 0.90131,0.38123 0.0949,0.40565 -0.47103,0.0143 -0.97974,-0.0968 -1.13047,-0.24681 z m -8.41682,-2.62172 c 0.081,-0.24188 0.28142,-0.42598 0.44534,-0.40911 0.16391,0.0169 0.58642,0.0307 0.93891,0.0307 0.35248,0 0.52655,0.1841 0.38681,0.40911 -0.34295,0.55225 -1.95694,0.52429 -1.77106,-0.0307 z m -3.36741,-1.35111 c 0,-0.69386 1.00334,-1.57441 1.37383,-1.20569 0.61038,0.60746 0.24812,1.76926 -0.55168,1.76926 -0.45218,0 -0.82215,-0.2536 -0.82215,-0.56357 z m -2.15816,-1.13423 c -0.39566,-0.41627 -0.71939,-0.93518 -0.71939,-1.15313 0,-0.21795 -0.32372,-0.27553 -0.71938,-0.12796 -0.62997,0.23497 -0.64927,0.18252 -0.15521,-0.42195 0.42039,-0.51432 0.43537,-0.69026 0.0588,-0.69026 -0.2921,0 -0.40002,-0.27328 -0.25571,-0.64754 0.37117,-0.96263 -0.48669,-7.71306 -1.20829,-9.50787 -0.54986,-1.36768 -0.5539,-1.69938 -0.0328,-2.69896 0.54463,-1.04475 0.62665,-1.07651 0.9851,-0.38157 0.21505,0.41693 0.49299,1.40241 0.61764,2.18995 0.12466,0.78753 0.42198,1.93473 0.66071,2.54932 0.37112,0.95536 0.60625,1.08316 1.62124,0.88113 0.86231,-0.17164 1.25606,-0.0576 1.43896,0.41673 0.29182,0.75684 0.10234,0.80743 -0.94157,0.25141 -0.57342,-0.30541 -0.81645,-0.23975 -1.01459,0.27413 -0.31022,0.80455 0.40685,1.33757 1.82268,1.35483 0.76351,0.009 0.87876,0.10635 0.44835,0.37752 -0.31863,0.20075 -0.85769,0.25869 -1.19789,0.12877 -0.40464,-0.15453 -0.51509,-0.0696 -0.31938,0.24554 0.30965,0.49863 -0.62639,1.70283 -1.32362,1.70283 -0.21773,0 -0.51789,0.48382 -0.66702,1.07514 -0.28312,1.12265 0.79778,2.59998 1.91191,2.61312 0.37775,0.004 0.35305,0.12255 -0.0856,0.40911 -0.54614,0.35681 -0.54653,0.44766 -0.003,0.79493 0.3963,0.25339 0.46899,0.52109 0.20554,0.75685 -0.24734,0.22133 -0.69054,0.0671 -1.12703,-0.39207 z m 25.38406,-1.16597 c -0.13974,-0.22501 -0.0582,-0.40911 0.18127,-0.40911 0.23944,0 0.43534,0.1841 0.43534,0.40911 0,0.22501 -0.0816,0.40911 -0.18127,0.40911 -0.0997,0 -0.29561,-0.1841 -0.43534,-0.40911 z M 234.8024,169.2182 c 0,-0.19878 0.46408,-0.44971 1.03129,-0.55762 0.83472,-0.1588 0.94265,-0.0899 0.56628,0.36142 -0.51946,0.62292 -1.59757,0.75532 -1.59757,0.1962 z m -4.93294,-1.27503 c 0,-0.22501 0.18499,-0.40911 0.41108,-0.40911 0.22609,0 0.41108,0.1841 0.41108,0.40911 0,0.22502 -0.18499,0.40912 -0.41108,0.40912 -0.22609,0 -0.41108,-0.1841 -0.41108,-0.40912 z m 6.98833,-0.81822 c 0,-0.22501 0.1959,-0.40911 0.43534,-0.40911 0.23943,0 0.32101,0.1841 0.18127,0.40911 -0.13973,0.22501 -0.33563,0.40911 -0.43534,0.40911 -0.0997,0 -0.18127,-0.1841 -0.18127,-0.40911 z m 20.17527,-2.2842 c 0.0197,-0.47659 0.11713,-0.57353 0.24835,-0.24717 0.11875,0.29533 0.10415,0.64819 -0.0324,0.78413 -0.1366,0.13594 -0.23376,-0.10569 -0.21591,-0.53696 z m -2.49893,-0.072 c 0,-0.17089 0.41622,-0.56517 0.92493,-0.87618 0.92164,-0.56346 0.92214,-0.56236 0.14183,0.31071 -0.83781,0.93738 -1.06676,1.05874 -1.06676,0.56547 z m -8.42709,-0.91663 c 0.13973,-0.22501 0.33564,-0.40911 0.43534,-0.40911 0.0997,0 0.18128,0.1841 0.18128,0.40911 0,0.22501 -0.19591,0.40911 -0.43534,0.40911 -0.23944,0 -0.32102,-0.1841 -0.18128,-0.40911 z m 11.13946,-2.14515 c -0.18501,-0.84231 -0.18566,-2.03896 -0.002,-2.65922 l 0.33493,-1.12774 0.14744,1.32961 c 0.0811,0.73129 0.0817,1.92794 0.002,2.65922 l -0.14598,1.32961 z m -23.88287,-0.30952 c -0.13974,-0.22501 -0.0582,-0.40911 0.18127,-0.40911 0.23944,0 0.43534,0.1841 0.43534,0.40911 0,0.22501 -0.0816,0.40911 -0.18127,0.40911 -0.0997,0 -0.29561,-0.1841 -0.43534,-0.40911 z m 21.71644,-0.61366 c 0.55685,-2.15955 0.77365,-2.65922 1.15378,-2.65922 0.50305,0 0.0633,1.52773 -0.76546,2.65922 l -0.5993,0.81822 z m -3.08948,-0.0749 c 0.29674,-0.11818 0.6513,-0.10364 0.7879,0.0323 0.1366,0.13595 -0.1062,0.23264 -0.53954,0.21488 -0.47888,-0.0196 -0.57629,-0.11658 -0.24836,-0.24717 z m -21.23767,-2.01425 c -0.7024,-0.78912 -0.48336,-1.0124 0.69285,-0.70629 0.50808,0.13223 0.85841,0.43559 0.77851,0.67414 -0.23207,0.69289 -0.87082,0.70684 -1.47136,0.0322 z m 13.50427,-10.18416 c 0,-0.33751 0.18498,-0.61366 0.41108,-0.61366 0.22609,0 0.41107,0.27615 0.41107,0.61366 0,0.33752 -0.18498,0.61367 -0.41107,0.61367 -0.2261,0 -0.41108,-0.27615 -0.41108,-0.61367 z m -18.10776,-1.88066 c -0.47256,-0.92186 -0.76419,-1.92251 -0.64806,-2.22368 0.11612,-0.30116 0.0131,-0.61327 -0.22899,-0.69357 -0.54631,-0.18124 -0.99733,-4.40708 -0.47037,-4.40708 0.20964,0 0.62703,0.23013 0.92753,0.51139 0.45006,0.42124 0.49565,0.29504 0.25867,-0.71595 -0.22218,-0.94782 -0.17605,-1.11815 0.20256,-0.74791 0.26964,0.26368 0.74519,0.38206 1.05678,0.26307 0.31159,-0.119 0.56652,-0.002 0.56652,0.26066 0,0.26237 -0.18498,0.36325 -0.41107,0.22418 -0.2261,-0.13906 -0.41108,0.12045 -0.41108,0.57669 0,0.60502 0.1947,0.76719 0.71939,0.59921 0.60916,-0.19502 0.62491,-0.16171 0.10276,0.2174 -0.5481,0.39796 -0.5481,0.49246 0,0.85055 0.84595,0.55267 0.14516,0.52147 -0.90996,-0.0405 -0.80733,-0.43 -0.84027,-0.37775 -0.5804,0.9205 0.15153,0.75701 0.61814,2.06675 1.0369,2.91054 0.41877,0.84379 0.61694,1.53417 0.44038,1.53417 -0.17657,0 -0.22428,0.3682 -0.10602,0.81822 0.38063,1.44857 -0.65904,0.87148 -1.54554,-0.85788 z m 5.77542,0.47292 c 0,-0.4633 0.18499,-0.84237 0.41108,-0.84237 0.22609,0 0.41108,0.26529 0.41108,0.58952 0,0.32424 -0.18499,0.70331 -0.41108,0.84237 -0.22609,0.13907 -0.41108,-0.12622 -0.41108,-0.58952 z m -3.28862,-0.0241 c 0,-0.22502 0.18499,-0.40912 0.41108,-0.40912 0.22609,0 0.41108,0.1841 0.41108,0.40912 0,0.22501 -0.18499,0.40911 -0.41108,0.40911 -0.22609,0 -0.41108,-0.1841 -0.41108,-0.40911 z m 15.89501,0.13636 c -0.473,-0.47073 -0.29936,-0.95459 0.34257,-0.95459 0.33913,0 0.61661,0.27615 0.61661,0.61367 0,0.63885 -0.48618,0.81166 -0.95918,0.34092 z m 8.89895,-1.9474 c -0.26802,-0.30392 -0.39303,-0.98729 -0.2778,-1.5186 0.18725,-0.86328 0.15009,-0.89434 -0.34939,-0.29194 -0.48416,0.58391 -0.56849,0.31029 -0.63052,-2.04556 -0.0543,-2.06341 0.0319,-2.54089 0.35727,-1.97884 0.23588,0.40743 0.32671,1.00576 0.20184,1.32961 -0.12488,0.32385 -0.0544,0.58881 0.15667,0.58881 0.53133,0 1.07509,1.14804 1.40486,2.96606 0.28703,1.58249 -0.0135,1.91357 -0.86293,0.95046 z m -9.29034,-1.8351 c -0.38961,-0.76781 -0.66133,-1.43228 -0.60383,-1.47661 0.0575,-0.0443 0.61326,-0.20204 1.23502,-0.35049 1.1563,-0.27608 1.55951,0.36012 0.75928,1.19803 -0.20414,0.21376 -0.44113,0.75685 -0.52663,1.20687 -0.13039,0.68634 -0.26963,0.59321 -0.86384,-0.5778 z m -2.5768,-5.38995 c -0.15191,-0.24462 -0.0703,-0.64964 0.18127,-0.90004 0.33592,-0.33431 0.45748,-0.21613 0.45748,0.44475 0,0.98781 -0.21354,1.14001 -0.63875,0.45529 z M 231.1027,132.5073 c 0,-0.90612 -0.14203,-1.03488 -0.92493,-0.83857 -0.87232,0.21873 -0.88145,0.19957 -0.16059,-0.33693 0.6062,-0.45116 0.9431,-0.46811 1.62842,-0.0819 1.29196,0.72804 1.92509,1.38813 1.91049,1.99186 -0.009,0.36484 -0.19063,0.30784 -0.55917,-0.17533 -0.66976,-0.87808 -1.07207,-0.91646 -1.07207,-0.10228 0,0.33752 -0.18498,0.61367 -0.41107,0.61367 -0.2261,0 -0.41108,-0.48172 -0.41108,-1.07049 z m 3.12706,0.42336 c -0.35033,-0.90857 -0.31052,-1.39842 0.11364,-1.39842 0.19974,0 0.45156,0.46025 0.55961,1.02277 0.21642,1.1267 -0.27742,1.40224 -0.67325,0.37565 z m 5.50557,-0.55606 c 0,-0.21173 0.18499,-0.49874 0.41108,-0.63781 0.22609,-0.13906 0.41108,0.0342 0.41108,0.38497 0,0.35079 -0.18499,0.63781 -0.41108,0.63781 -0.22609,0 -0.41108,-0.17324 -0.41108,-0.38497 z m -16.56784,-2.33021 c -0.1575,-0.15673 -0.28635,-0.79124 -0.28635,-1.41002 0,-0.61878 -0.18792,-1.1874 -0.4176,-1.26359 -0.46405,-0.15395 -1.21875,-5.87816 -1.22359,-9.28069 -0.002,-1.78077 0.11247,-2.14746 0.6135,-1.95612 0.43043,0.16438 0.61661,-0.0305 0.61661,-0.64528 0,-0.48443 0.3806,-1.66323 0.84578,-2.61956 0.59747,-1.22829 0.80216,-2.3172 0.69721,-3.70889 -0.14502,-1.92302 -0.15664,-1.93832 -0.48609,-0.64049 -0.51076,2.01213 -1.19382,1.65601 -0.78472,-0.40911 0.5268,-2.65927 0.43422,-8.592767 -0.13706,-8.783838 -0.31347,-0.104843 -0.39931,0.151759 -0.24597,0.735318 0.17083,0.65014 0.0777,0.84398 -0.33917,0.7057 -0.31609,-0.10485 -0.69584,-0.819878 -0.84389,-1.588936 -0.14805,-0.769059 -0.74414,-2.318787 -1.32463,-3.443842 -0.59068,-1.144794 -1.03845,-2.676083 -1.01685,-3.477441 0.0381,-1.41417 0.0421,-1.410811 0.31836,0.271428 0.29274,1.782295 0.37896,1.924625 3.20779,5.295673 1.61344,1.922694 1.75355,2.276028 1.75355,4.422088 0,1.28283 0.15989,2.23408 0.35531,2.11389 0.19541,-0.1202 0.48009,1.152 0.63262,2.82711 0.23479,2.57867 0.1488,3.32641 -0.56084,4.87672 -1.07816,2.35539 -1.05709,3.34017 0.0953,4.45244 0.51341,0.49553 1.29959,1.60841 1.74708,2.47306 1.06444,2.05674 2.80374,3.27539 4.57993,3.20893 0.7713,-0.0288 2.27424,0.27383 3.33988,0.67263 1.06564,0.3988 2.49248,0.69701 3.17075,0.66268 1.58699,-0.0803 5.92401,-0.60558 6.98833,-0.84636 0.62446,-0.14126 0.57504,-0.0464 -0.20554,0.39453 -1.08708,0.61405 -6.07674,1.48171 -7.81048,1.35816 -0.56523,-0.0403 -1.26033,-0.22181 -1.54466,-0.4034 -0.40735,-0.26016 -0.41951,-0.11731 -0.0574,0.67372 0.69078,1.50884 2.04075,2.04567 4.48631,1.78402 3.44037,-0.36808 7.25785,-3.44012 9.21039,-7.41186 0.6006,-1.22172 1.25429,-2.28027 1.45264,-2.35234 0.19834,-0.0721 0.48242,-0.86743 0.63127,-1.76747 0.19982,-1.20821 0.15668,-1.47586 -0.16489,-1.02278 -0.23955,0.33752 -0.43838,1.02789 -0.44184,1.53417 -0.004,0.52937 -0.26009,0.9205 -0.60359,0.9205 -0.33337,0 -0.77356,0.63534 -0.99622,1.43788 -0.32584,1.17444 -2.51726,4.43392 -2.51726,3.74412 0,-0.39567 2.38237,-5.20187 2.86592,-5.78173 0.31769,-0.38097 0.38774,-1.0771 0.19527,-1.94046 -0.4377,-1.9633 -0.52136,-6.18507 -0.13261,-6.69143 0.18399,-0.23965 0.17502,-1.4363 -0.0199,-2.65922 -0.34431,-2.15971 -0.009,-3.12488 0.89222,-2.57038 0.19027,0.11703 0.61978,-0.0134 0.95448,-0.28985 0.93051,-0.76855 1.13348,-0.19364 0.41787,1.18358 -1.15918,2.23087 -0.75443,6.6126 0.61082,6.6126 0.26639,0 0.27357,0.2557 0.0204,0.72651 -0.25002,0.46494 -0.24284,0.98942 0.0199,1.45674 0.22584,0.40163 0.30477,1.00476 0.1754,1.34029 -0.12938,0.33554 -0.0707,0.50886 0.13042,0.38516 0.20111,-0.1237 0.34764,0.40756 0.32563,1.18057 -0.0228,0.79886 -0.21276,1.29923 -0.44023,1.15932 -0.2337,-0.14375 -0.2885,0.0435 -0.13172,0.45012 0.16629,0.43127 0.0364,0.78487 -0.34122,0.9291 -0.33533,0.12806 -0.60969,0.48866 -0.60969,0.80134 0,0.96487 -3.37174,5.28528 -5.10448,6.54067 -3.18962,2.31092 -5.64708,3.44017 -7.48642,3.44017 -1.87351,0 -4.74999,-1.24239 -5.60838,-2.42234 -0.27762,-0.38163 -1.52219,-1.28104 -2.7657,-1.9987 -2.78864,-1.60941 -4.52185,-3.11559 -4.52185,-3.92955 0,-0.72713 -2.02317,-2.6954 -2.77058,-2.6954 -0.36306,0 -0.51804,0.78836 -0.51804,2.63507 0,2.48337 0.4394,3.63068 1.02769,2.68337 0.46603,-0.75045 1.03846,0.0194 0.7791,1.04785 -0.14648,0.58081 -0.0721,0.9977 0.17798,0.9977 0.23628,0 0.48757,0.58415 0.55842,1.29811 0.0708,0.71395 0.37801,1.3796 0.68258,1.47922 0.44163,0.14444 0.45951,0.006 0.0883,-0.68444 -0.30709,-0.57107 -0.32067,-0.86556 -0.0399,-0.86556 0.23404,0 0.42554,0.1841 0.42554,0.40911 0,0.80088 0.69859,0.3913 1.22114,-0.71594 0.30547,-0.64727 0.6098,-0.9082 0.7166,-0.61443 0.25258,0.69473 -1.39959,3.28065 -2.27213,3.55626 -0.38755,0.12241 -0.98945,0.68972 -1.33756,1.26068 -0.3481,0.57097 -0.76177,0.90988 -0.91925,0.75314 z m -0.82769,-5.95286 c -0.13123,-0.32636 -0.22864,-0.22942 -0.24836,0.24718 -0.0178,0.43126 0.0793,0.6729 0.21591,0.53695 0.13659,-0.13594 0.15119,-0.4888 0.0324,-0.78413 z m 11.22936,-0.90229 c 0,-0.0884 -0.28708,-0.27043 -0.63796,-0.40443 -0.36583,-0.13971 -0.53084,-0.0711 -0.38682,0.16078 0.24141,0.38874 1.02478,0.57499 1.02478,0.24365 z m 14.41379,5.17239 c 0.0249,-1.46534 0.0461,-1.48828 0.47217,-0.51139 0.69219,1.58689 0.71058,2.04555 0.082,2.04555 -0.40108,0 -0.5722,-0.47369 -0.55418,-1.53416 z m -22.22426,0.86332 c 0,-0.31739 1.31655,-1.34353 1.74708,-1.3617 0.16957,-0.007 0.3083,0.35519 0.3083,0.80521 0,0.60003 -0.27405,0.81822 -1.02769,0.81822 -0.56523,0 -1.02769,-0.11778 -1.02769,-0.26173 z m 23.61483,-0.59214 c -0.15191,-0.24462 -0.0703,-0.64964 0.18128,-0.90004 0.33592,-0.33431 0.45748,-0.21613 0.45748,0.44476 0,0.9878 -0.21354,1.14 -0.63876,0.45528 z m 1.04984,-1.80535 c 0,-0.33751 0.18498,-0.61366 0.41107,-0.61366 0.2261,0 0.41108,0.27615 0.41108,0.61366 0,0.33752 -0.18498,0.61367 -0.41108,0.61367 -0.22609,0 -0.41107,-0.27615 -0.41107,-0.61367 z m -1.64432,-0.61366 c -0.49862,-0.32069 -0.43962,-0.39778 0.30831,-0.40285 0.50871,-0.003 0.92493,0.17783 0.92493,0.40285 0,0.51258 -0.43625,0.51258 -1.23324,0 z m -3.39824,-0.86899 c 0.27885,-0.2796 0.61055,-0.4053 0.73712,-0.27934 0.12656,0.12597 -0.10159,0.35472 -0.507,0.50836 -0.58587,0.22201 -0.63308,0.17502 -0.23012,-0.22902 z m 4.52871,0.15002 c -0.39566,-0.0876 -0.71939,-0.32985 -0.71939,-0.53836 0,-0.5226 1.12302,-0.47846 1.45568,0.0572 0.34668,0.55827 0.1608,0.67973 -0.73629,0.48115 z m -24.5619,-1.51675 c 0,-0.34543 -0.31448,-0.62806 -0.69883,-0.62806 -0.55656,0 -0.59492,-0.10342 -0.18843,-0.50797 0.4065,-0.40455 0.58218,-0.39241 0.86289,0.0596 0.19386,0.31217 0.64862,0.45448 1.01058,0.31625 0.94861,-0.36228 0.81174,0.43059 -0.16406,0.95032 -0.6562,0.34951 -0.82215,0.31113 -0.82215,-0.19016 z m 24.45913,-0.21895 c -0.13973,-0.22501 -0.0582,-0.40911 0.18128,-0.40911 0.23943,0 0.43534,0.1841 0.43534,0.40911 0,0.22501 -0.0816,0.40911 -0.18128,0.40911 -0.0997,0 -0.29561,-0.1841 -0.43534,-0.40911 z m -13.36003,-2.25011 c -0.41912,-0.5026 -0.39103,-0.61366 0.15521,-0.61366 0.36682,0 0.66695,0.27614 0.66695,0.61366 0,0.33752 -0.0699,0.61367 -0.15521,0.61367 -0.0854,0 -0.38549,-0.27615 -0.66695,-0.61367 z m -7.57344,-1.06013 c -1.41065,-1.66844 -2.70351,-4.19302 -2.70351,-5.27918 0,-0.46691 0.27005,-1.25909 0.60012,-1.76042 0.69692,-1.05854 0.62408,-4.12191 -0.13099,-5.50893 -0.52693,-0.96796 -0.26368,-3.60378 0.40074,-4.01245 0.20296,-0.12483 0.14973,-0.62329 -0.11966,-1.12054 -0.50326,-0.92892 -0.73646,-2.73755 -0.3527,-2.73549 0.12051,8.2e-4 0.58085,0.53854 1.02299,1.19531 l 0.80388,1.19414 1.10943,-0.7862 c 0.61019,-0.43241 1.72832,-0.77206 2.48474,-0.75476 l 1.37532,0.0314 -1.63507,0.49047 c -2.63404,0.79014 -4.49113,4.43667 -3.01011,5.9106 0.29384,0.29243 0.32192,0.49093 0.0695,0.49093 -0.23311,0 -0.67118,-0.45997 -0.9735,-1.02216 -0.86431,-1.60724 -0.96063,-0.88748 -0.22038,1.64672 0.38982,1.33451 1.14885,2.76726 1.78512,3.36961 1.02862,0.97378 0.9387,1.01287 -0.75921,0.33 -0.45896,-0.18459 -0.78393,0.16114 -1.18247,1.258 -0.48739,1.34139 -0.47113,1.56963 0.14366,2.01702 0.44238,0.32193 0.53557,0.60144 0.25754,0.77245 -0.60581,0.37262 -0.5471,1.03926 0.0782,0.88756 0.28262,-0.0686 0.37511,-0.0474 0.20554,0.0469 -0.56955,0.317 -0.31602,0.99874 0.97448,2.62034 1.54033,1.93552 1.3426,2.57101 -0.22359,0.7186 z m 5.92913,-1.57494 c 0,-0.21173 0.18498,-0.49875 0.41108,-0.63781 0.22609,-0.13907 0.41107,0.0342 0.41107,0.38496 0,0.3508 -0.18498,0.63781 -0.41107,0.63781 -0.2261,0 -0.41108,-0.17323 -0.41108,-0.38496 z m -4.66248,-0.61698 c -0.15278,-0.39623 -0.031,-0.51739 0.3671,-0.36534 0.65021,0.24831 0.81955,0.95817 0.22858,0.95817 -0.2019,0 -0.46996,-0.26677 -0.59568,-0.59283 z m 9.18433,-1.86183 c 0,-0.22501 0.18499,-0.40911 0.41108,-0.40911 0.22609,0 0.41108,0.1841 0.41108,0.40911 0,0.22501 -0.18499,0.40911 -0.41108,0.40911 -0.22609,0 -0.41108,-0.1841 -0.41108,-0.40911 z m -4.93293,-1.63645 c 0,-0.22501 0.1959,-0.40911 0.43534,-0.40911 0.23944,0 0.32101,0.1841 0.18128,0.40911 -0.13974,0.22501 -0.33564,0.40911 -0.43534,0.40911 -0.0997,0 -0.18128,-0.1841 -0.18128,-0.40911 z m -0.40283,-1.83111 c -0.32424,-0.38881 -0.35543,-0.62355 -0.0828,-0.62355 0.49681,0 1.07603,0.77616 0.79095,1.05988 -0.10347,0.10298 -0.42212,-0.0934 -0.70811,-0.43633 z m -1.81617,-0.68813 c -0.39515,-0.56145 -0.65854,-1.77073 -0.65854,-3.02347 0,-1.67193 -0.19555,-2.27059 -0.98176,-3.00566 -1.57286,-1.47055 -0.52496,-3.6051 1.51917,-3.09451 0.84384,0.21077 1.06176,0.5607 1.22116,1.96089 0.10671,0.93739 -0.0834,2.70497 -0.42251,3.92797 -0.48591,1.75252 -0.51254,2.38937 -0.12566,3.0059 0.71225,1.13502 0.22741,1.33612 -0.55186,0.22888 z m 9.6184,0.119 c 0,-0.23258 0.27501,-0.57604 0.61113,-0.76324 0.53127,-0.2959 0.50441,-0.61989 -0.20554,-2.47939 -1.13805,-2.98077 -1.06387,-4.63641 0.26708,-5.961 1.18399,-1.17832 1.82428,-1.31006 3.09014,-0.63583 1.08421,0.57746 0.73746,2.0761 -0.91327,3.94719 -0.66288,0.75135 -1.21357,1.58982 -1.22377,1.86326 -0.0102,0.27343 -0.27265,-0.0552 -0.58323,-0.73019 -0.80821,-1.75662 -0.76249,-0.76164 0.0714,1.55373 0.51192,1.42139 0.58942,2.14821 0.28097,2.63487 -0.50915,0.80329 -1.39491,1.16563 -1.39491,0.5706 z m 2.87755,-6.72701 c 0,-0.22501 -0.36997,-0.0759 -0.82216,0.33137 -0.45219,0.40727 -0.82216,0.92458 -0.82216,1.14959 0,0.22502 0.36997,0.0759 0.82216,-0.33137 0.45219,-0.40726 0.82216,-0.92458 0.82216,-1.14959 z m 0.56064,-2.53006 c -0.12965,-0.33622 -0.42107,-0.49731 -0.64761,-0.35797 -0.25326,0.15578 -0.1971,0.3888 0.14585,0.60506 0.74849,0.472 0.77415,0.45936 0.50176,-0.24709 z m -7.72431,6.12276 c -0.73822,-1.12127 -0.56191,-1.82944 0.45548,-1.82944 0.51195,0 0.54303,0.11951 0.15275,0.58752 -0.36367,0.43609 -0.37291,0.80513 -0.0359,1.43188 0.6365,1.18361 0.24682,1.05429 -0.57236,-0.18996 z m 8.3969,0.47076 c 0,-0.085 0.32372,-0.40713 0.71939,-0.71594 0.65199,-0.50888 0.66653,-0.49441 0.1552,0.15446 -0.53702,0.68148 -0.87459,0.89819 -0.87459,0.56148 z m -7.3994,-0.86831 c 0,-0.33752 0.18498,-0.61367 0.41108,-0.61367 0.22609,0 0.41107,0.27615 0.41107,0.61367 0,0.33751 -0.18498,0.61366 -0.41107,0.61366 -0.2261,0 -0.41108,-0.27615 -0.41108,-0.61366 z m 9.04371,0.20455 c 0,-0.22501 0.18499,-0.40911 0.41108,-0.40911 0.22609,0 0.41108,0.1841 0.41108,0.40911 0,0.22501 -0.18499,0.40911 -0.41108,0.40911 -0.22609,0 -0.41108,-0.1841 -0.41108,-0.40911 z m 4.17568,-0.81822 c 0,-0.56253 0.0933,-0.79265 0.20735,-0.51139 0.11404,0.28127 0.11404,0.74152 0,1.02278 -0.11404,0.28126 -0.20735,0.0511 -0.20735,-0.51139 z m 0.42632,-3.88655 c 0.008,-0.67503 0.10051,-0.90166 0.20473,-0.5036 0.10422,0.39805 0.0974,0.95035 -0.0153,1.22733 -0.11261,0.27698 -0.19788,-0.0487 -0.1895,-0.72373 z m -16.93433,-1.02278 c 0,-0.22501 0.18498,-0.40911 0.41107,-0.40911 0.2261,0 0.41108,0.1841 0.41108,0.40911 0,0.22501 -0.18498,0.40911 -0.41108,0.40911 -0.22609,0 -0.41107,-0.1841 -0.41107,-0.40911 z m 4.13865,0 c -0.0442,-0.1125 -0.13797,-0.78313 -0.20839,-1.49029 -0.14042,-1.41008 0.34223,-2.668798 0.65745,-1.71462 0.16799,0.50848 -0.27272,3.65379 -0.44906,3.20491 z m 12.74443,-2.55694 c -0.0159,-0.61878 0.15609,-1.125055 0.38218,-1.125055 0.48249,0 0.48249,0.31445 0,1.431885 -0.31306,0.72505 -0.35658,0.69011 -0.38218,-0.30683 z m -1.8746,-0.31351 c 0.14201,-0.22868 0.43041,-0.30987 0.64088,-0.18041 0.57018,0.35071 0.46386,0.5962 -0.25821,0.5962 -0.35248,0 -0.52468,-0.18711 -0.38267,-0.41579 z m -15.50859,-1.016101 c -0.60958,-0.562527 -1.30138,-1.022777 -1.53734,-1.022777 -0.23596,0 -0.42902,-0.203794 -0.42902,-0.452881 0,-0.249083 0.24922,-0.357706 0.55382,-0.241376 0.43896,0.167638 0.52223,-0.351307 0.4015,-2.502248 -0.0838,-1.492563 -0.31854,-2.879174 -0.5217,-3.081361 -0.20315,-0.202187 -0.27775,-0.605226 -0.16578,-0.895642 0.11198,-0.290415 -0.1337,-0.614828 -0.54596,-0.72091 -0.48762,-0.125474 -0.34603,-0.209469 0.40515,-0.240341 0.72262,-0.0297 1.05325,0.115938 0.88356,0.389192 -0.14931,0.240434 0.11687,0.537633 0.59236,0.66138 0.90446,0.23539 1.1237,0.739202 0.49103,1.128344 -0.41875,0.257564 -0.13024,1.801675 0.48219,2.580679 0.26968,0.343023 0.25013,0.511389 -0.0594,0.511389 -0.84598,0 -0.52416,2.94912 0.4324,3.962463 1.20114,1.27243 0.41226,1.2115 -0.98284,-0.07591 z m -8.54361,-2.65922 c 0,-0.225011 0.18499,-0.409111 0.41108,-0.409111 0.22609,0 0.41108,0.1841 0.41108,0.409111 0,0.225011 -0.18499,0.409111 -0.41108,0.409111 -0.22609,0 -0.41108,-0.1841 -0.41108,-0.409111 z m 5.96063,-0.409111 c 0.13974,-0.225011 0.33564,-0.40911 0.43534,-0.40911 0.0997,0 0.18128,0.184099 0.18128,0.40911 0,0.225011 -0.1959,0.409111 -0.43534,0.409111 -0.23944,0 -0.32101,-0.1841 -0.18128,-0.409111 z m -1.43877,-0.359019 c 0,-0.197457 0.30776,-0.611682 0.68392,-0.920499 0.62015,-0.50913 0.63797,-0.475657 0.19108,0.359019 -0.5097,0.951985 -0.875,1.186393 -0.875,0.56148 z m 14.42018,-1.51607 c 0.0197,-0.476594 0.11713,-0.573533 0.24836,-0.247173 0.11874,0.295325 0.10414,0.648183 -0.0324,0.784131 -0.1366,0.135943 -0.23375,-0.10569 -0.21591,-0.536958 z m 0.64104,-1.602352 c 0.13014,-0.337517 0.30932,-0.613666 0.39818,-0.613666 0.0889,0 0.16156,0.276149 0.16156,0.613666 0,0.337516 -0.17918,0.613666 -0.39818,0.613666 -0.21899,0 -0.2917,-0.27615 -0.16156,-0.613666 z m -13.21137,-4.704774 c -0.13973,-0.225011 0.0343,-0.409111 0.38682,-0.409111 0.35248,0 0.64087,0.1841 0.64087,0.409111 0,0.225011 -0.17406,0.409111 -0.38681,0.409111 -0.21275,0 -0.50115,-0.1841 -0.64088,-0.409111 z m 22.4552,-2.523481 c -0.0571,-2.119198 0.23498,-3.20407 0.86262,-3.20407 0.24327,0 0.29366,0.380976 0.12175,0.920499 -0.16131,0.506275 -0.43721,1.656899 -0.61311,2.556942 l -0.31981,1.636444 z m -22.16405,0.610401 c -0.40675,-0.162425 -0.41944,-0.345825 -0.0542,-0.783746 0.26221,-0.314434 0.3851,-0.920503 0.27308,-1.346817 -0.11202,-0.42631 -0.0609,-1.004964 0.11353,-1.285892 0.18229,-0.29355 0.3794,0.383263 0.46346,1.591412 0.0804,1.156204 0.0538,2.087541 -0.0593,2.069634 -0.11304,-0.01792 -0.44449,-0.12797 -0.73654,-0.244591 z m -10.44477,-1.441629 c 0.38367,-0.381835 0.60291,-0.381835 0.98658,0 0.38368,0.381836 0.27406,0.490933 -0.49329,0.490933 -0.76735,0 -0.87696,-0.109097 -0.49329,-0.490933 z m -3.84658,-1.725727 c -0.43852,-0.319119 -0.68534,-0.691651 -0.54849,-0.827852 0.40607,-0.404128 1.59974,0.221288 1.59974,0.838174 0,0.707806 -0.0653,0.707164 -1.05125,-0.01031 z m 32.0149,-1.567614 c -1.27735,-1.412095 -1.64857,-2.27124 -0.57648,-1.334188 0.86126,0.752784 1.89874,2.254687 1.55748,2.254687 -0.0816,0 -0.52304,-0.414225 -0.981,-0.920499 z m 2.6238,-1.636444 c -0.9237,-0.849968 -1.53391,-1.850948 -1.69156,-2.774806 -0.22717,-1.331254 -0.11093,-1.548975 1.47428,-2.761497 0.94649,-0.723967 1.96475,-1.316302 2.26279,-1.316302 0.29804,0 0.54189,-0.1841 0.54189,-0.409111 0,-0.584484 -0.66817,-0.507068 -2.17858,0.252409 -1.64214,0.825725 -3.16543,2.189381 -3.16543,2.833706 0,0.268855 -0.67398,0.59767 -1.49773,0.730709 -0.82374,0.133034 -1.93365,0.649463 -2.46646,1.147617 -0.53281,0.498158 -0.96875,0.689548 -0.96875,0.425311 0,-0.264232 0.20478,-0.480423 0.45506,-0.480423 0.25028,0 0.35222,-0.266723 0.22652,-0.592723 -0.13828,-0.358623 0.0879,-0.692674 0.57263,-0.845792 0.44065,-0.139183 0.80118,-0.437167 0.80118,-0.662178 0,-0.225011 0.36997,-0.292249 0.82216,-0.149416 0.49,0.154775 0.82215,0.07352 0.82215,-0.201131 0,-0.253452 -0.16395,-0.359981 -0.36434,-0.236724 -0.20039,0.123253 -0.4605,-0.141851 -0.57802,-0.589115 -0.11753,-0.447269 -0.0175,-0.933894 0.22231,-1.081386 0.25636,-0.157684 0.31515,-0.07357 0.14269,0.204146 -0.64409,1.037169 1.99425,0.409643 4.34254,-1.03287 2.31764,-1.423685 2.52829,-1.477143 3.88984,-0.987155 2.00749,0.722444 4.22808,2.187916 4.24884,2.804016 0.0125,0.369595 -0.42459,0.445882 -1.53867,0.268586 l -1.55607,-0.247635 0.15709,1.639356 c 0.12982,1.354758 -0.0817,1.962316 -1.21871,3.49973 -0.75668,1.023206 -1.5866,1.867558 -1.84425,1.876333 -0.25765,0.0088 -1.11868,-0.582369 -1.9134,-1.313655 z m -35.21445,-0.652597 c -1.54961,-1.467055 -1.85509,-2.23613 -1.77206,-4.461287 0.0234,-0.626185 -0.50298,-0.651358 -1.58369,-0.07575 -0.44986,0.239604 -1.0389,0.359633 -1.30898,0.266732 -0.27008,-0.0929 0.47635,-0.611118 1.65875,-1.151586 1.18239,-0.540472 2.15356,-1.096032 2.15815,-1.234577 0.005,-0.138546 -0.77783,-0.108496 -1.73872,0.06678 -1.83964,0.335557 -2.76687,0.115876 -1.21528,-0.287928 0.97393,-0.253473 1.1454,-0.978364 0.51064,-2.158759 -0.29944,-0.556824 -1.12676,-0.808649 -3.38387,-1.029994 -1.64313,-0.161136 -3.54586,-0.528812 -4.22828,-0.817064 -2.30514,-0.973671 -5.92184,-5.953457 -4.32385,-5.953457 0.22609,0 0.41695,0.322174 0.42413,0.715943 0.0179,0.983446 2.37137,3.167115 3.99495,3.706761 1.47544,0.490409 1.72124,0.256999 0.61662,-0.585552 -0.62922,-0.479948 -0.64211,-0.600771 -0.10277,-0.964045 0.33914,-0.228427 0.8941,-0.394829 1.23323,-0.369775 1.40582,0.103857 2.08804,-0.07423 1.83645,-0.479375 -0.14712,-0.236888 -0.48011,-0.360169 -0.73998,-0.273957 -0.70373,0.233455 -1.54159,-0.776546 -1.25684,-1.515048 0.13659,-0.354233 0.0436,-0.644063 -0.20672,-0.644063 -0.25029,0 -0.45506,0.194966 -0.45506,0.433256 0,0.238291 -0.16694,0.330578 -0.37097,0.205083 -0.60854,-0.374299 1.69965,-2.517344 3.35166,-3.11186 1.43308,-0.515729 1.59102,-0.491289 2.39834,0.371129 0.66903,0.71468 1.1341,0.86423 2.05892,0.662076 1.56572,-0.342245 1.50201,0.111876 -0.25392,1.809911 -0.79191,0.765802 -1.32916,1.502201 -1.19388,1.636443 0.13527,0.134237 0.68381,-0.262203 1.21897,-0.880984 0.53515,-0.61878 1.25935,-1.125054 1.60933,-1.125054 0.34999,0 0.63634,-0.280752 0.63634,-0.623894 0,-0.364882 0.50815,-0.725039 1.22401,-0.867524 1.41305,-0.281259 2.34437,-1.151998 1.6735,-1.564636 -0.23708,-0.145815 -0.43104,-0.54127 -0.43104,-0.878786 0,-0.337516 0.14796,-0.522659 0.3288,-0.41143 0.18084,0.111229 0.55237,-0.154055 0.82563,-0.589521 0.64716,-1.031299 -0.12193,-1.081505 -1.3276,-0.08667 -0.46999,0.387796 -0.62955,0.449249 -0.35457,0.136557 0.40383,-0.459223 0.226,-0.870305 -0.92493,-2.138156 -0.78368,-0.863293 -1.42419,-1.89127 -1.42334,-2.284389 8.2e-4,-0.472138 0.28089,-0.258766 0.82451,0.628583 0.45263,0.738841 1.11327,1.454217 1.46809,1.589722 0.87115,0.332689 3.87203,-0.595076 3.87203,-1.197095 0,-0.264707 0.31235,-1.295261 0.69412,-2.290112 0.57023,-1.485996 0.74849,-1.67098 0.9988,-1.036457 0.39204,0.993832 0.44417,2.012833 0.0847,1.655049 -0.52516,-0.522643 -1.32714,2.644549 -0.93174,3.679579 0.31315,0.819682 0.55987,0.934344 1.51128,0.702325 0.62537,-0.152504 1.19869,-0.432901 1.27405,-0.6231 0.0754,-0.1902 0.3991,-0.345818 0.71939,-0.345818 0.3203,0 0.58236,-0.276149 0.58236,-0.613666 0,-0.337516 0.29727,-0.613666 0.6606,-0.613666 0.41831,0 0.57381,0.225076 0.42398,0.613666 -0.13014,0.337517 -0.0772,0.613666 0.11758,0.613666 0.6932,0 0.89433,-1.376469 0.2533,-1.733496 -0.34832,-0.193992 -0.62768,-0.665742 -0.6208,-1.04833 0.0115,-0.640651 0.0457,-0.638859 0.43283,0.02271 0.29805,0.509338 0.71297,0.645208 1.42627,0.467036 1.26667,-0.31639 1.26653,0.115562 -8.2e-4,2.335921 -0.74012,1.296762 -0.89006,1.903608 -0.56628,2.291867 0.31525,0.378035 0.30927,0.528088 -0.0211,0.528088 -0.25377,0 -0.46141,0.27615 -0.46141,0.613666 0,0.337517 0.17918,0.613667 0.39818,0.613667 0.21899,0 0.28107,0.303703 0.13795,0.674901 -0.21676,0.562159 -0.0715,0.62776 0.8695,0.39271 0.69476,-0.173537 1.03475,-0.129242 0.88304,0.115054 -0.41913,0.674922 0.46516,0.890528 1.00371,0.244718 0.2794,-0.335037 0.76282,-0.609162 1.07427,-0.609162 0.70637,0 0.7577,0.813431 0.0524,0.831076 -0.72293,0.01808 -1.79145,1.598408 -2.13582,3.158822 -0.35917,1.627459 -1.02896,2.110782 -1.33119,0.960596 -0.12408,-0.472678 -0.28791,-0.859402 -0.36395,-0.859402 -0.55626,0 -2.23233,1.032243 -2.23233,1.374824 0,0.258886 -0.1921,0.234077 -0.49102,-0.06341 -0.38065,-0.378828 -0.28705,-0.677802 0.4164,-1.330027 0.49908,-0.462741 1.05299,-0.751815 1.2309,-0.642386 0.17791,0.109429 0.54706,-0.157327 0.82032,-0.592793 0.40885,-0.65155 0.38703,-0.79176 -0.12327,-0.79176 -0.34105,0 -0.62009,-0.1841 -0.62009,-0.409111 0,-0.225011 -0.27748,-0.409111 -0.61662,-0.409111 -0.80737,0 -0.78253,-0.402729 0.0628,-1.017888 0.94291,-0.686177 0.32228,-1.49721 -0.91015,-1.189371 -0.5579,0.139351 -1.0025,0.07045 -1.0025,-0.15536 0,-0.589803 -2.02248,-0.882955 -2.37407,-0.344119 -0.16386,0.251145 -0.50875,0.456629 -0.7664,0.456629 -0.25765,0 -1.52263,0.976449 -2.81107,2.169882 -1.28844,1.193438 -2.54907,2.101394 -2.80142,2.017682 -0.25234,-0.08371 -0.86089,0.313014 -1.35234,0.881617 -0.70791,0.819064 -0.79962,1.183476 -0.44147,1.754226 0.40839,0.650805 0.54255,0.661401 1.38864,0.109679 0.51511,-0.335905 0.93657,-0.437548 0.93657,-0.225883 0,0.211666 -0.7329,0.722187 -1.62867,1.134485 -2.02279,0.931038 -2.37643,1.677109 -1.03548,2.184496 0.56091,0.212238 1.01984,0.594242 1.01984,0.848897 0,0.254651 0.2892,0.352563 0.64266,0.217577 1.35832,-0.518744 3.85373,1.561322 5.3283,4.441442 0.23177,0.452693 0.78211,0.892217 1.22298,0.976715 0.44087,0.0845 1.01067,0.438215 1.26623,0.786041 0.2907,0.395647 0.75623,0.530641 1.24348,0.360574 0.61741,-0.215491 0.5777,-0.102078 -0.19163,0.547194 -0.99784,0.842125 -2.5237,1.11058 -2.5237,0.444007 0,-0.206257 0.23124,-0.467875 0.51385,-0.581366 0.32018,-0.128576 0.25538,-0.218523 -0.17192,-0.238647 -1.18106,-0.05563 -1.98624,0.435265 -1.98624,1.210943 0,0.637779 -1.93141,2.438755 -2.61538,2.438755 -0.12515,0 -0.97527,-0.707893 -1.88916,-1.573097 z m 4.36269,-4.750475 c -0.13388,-0.347221 -0.44072,-0.631312 -0.68186,-0.631312 -0.30402,0 -0.29776,0.26161 0.0204,0.853262 0.51028,0.948888 1.04388,0.76984 0.66146,-0.22195 z m -2.53015,-1.449533 c -0.13974,-0.225011 -0.65936,-0.406292 -1.15473,-0.402847 -0.73222,0.0051 -0.78535,0.08043 -0.28405,0.402847 0.80988,0.520876 1.76224,0.520876 1.43878,0 z m -6.73465,-5.684373 c 1.00705,-0.933726 0.64382,-1.217776 -1.85541,-1.450932 -2.34177,-0.21847 -2.87547,0.393932 -0.65172,0.747826 1.61487,0.256991 2.12462,0.80497 1.12299,1.207204 -0.39969,0.160506 -0.39587,0.213523 0.0172,0.238646 0.29207,0.01776 0.9072,-0.316472 1.36695,-0.742744 z m -2.5146,0.185523 c 0,-0.431808 -0.78891,-0.61322 -1.02356,-0.235374 -0.14201,0.228681 0.0302,0.415784 0.38268,0.415784 0.35248,0 0.64088,-0.08118 0.64088,-0.18041 z m 9.2883,-6.015782 c 0.77891,-0.873046 0.77815,-0.875161 -0.14182,-0.394718 -0.50871,0.265673 -0.92493,0.660657 -0.92493,0.877751 0,0.581199 0.19678,0.492099 1.06675,-0.483033 z m -7.23292,-0.758692 c 0,-0.22501 -0.28839,-0.40911 -0.64087,-0.40911 -0.35249,0 -0.52655,0.1841 -0.38682,0.40911 0.13973,0.225011 0.42813,0.409111 0.64088,0.409111 0.21275,0 0.38681,-0.1841 0.38681,-0.409111 z m 11.71572,-3.272886 c 0.13974,-0.225011 0.0582,-0.409111 -0.18127,-0.409111 -0.23944,0 -0.43534,0.1841 -0.43534,0.409111 0,0.225011 0.0816,0.409111 0.18127,0.409111 0.0997,0 0.29561,-0.1841 0.43534,-0.409111 z m 8.14852,22.071617 c 0.47535,-0.675413 0.53999,-1.12996 0.24002,-1.687783 -0.2258,-0.419886 -0.29671,-0.946723 -0.15759,-1.170756 0.46382,-0.746877 1.0183,0.04636 1.0183,1.456766 0,1.003017 -0.2453,1.524007 -0.87564,1.85974 -0.8441,0.449584 -0.85221,0.433084 -0.22509,-0.457967 z m 7.67798,-0.18419 c -0.41912,-0.502597 -0.39103,-0.613666 0.15521,-0.613666 0.36682,0 0.66695,0.27615 0.66695,0.613666 0,0.337516 -0.0699,0.613666 -0.15521,0.613666 -0.0854,0 -0.38549,-0.27615 -0.66695,-0.613666 z m 0.20554,-1.840999 c -0.13973,-0.22501 -0.0582,-0.40911 0.18128,-0.40911 0.23943,0 0.43534,0.1841 0.43534,0.40911 0,0.225011 -0.0816,0.409111 -0.18128,0.409111 -0.0997,0 -0.29561,-0.1841 -0.43534,-0.409111 z m -0.29028,-1.943276 c -0.37092,-0.731285 -0.51621,-1.32961 -0.32287,-1.32961 0.52095,0 0.1928,-2.184999 -0.35548,-2.366886 -0.91158,-0.302406 -0.46798,-0.960469 0.45478,-0.674644 0.91689,0.284009 0.91813,0.27892 0.14183,-0.586096 -0.43071,-0.479924 -0.58892,-0.872592 -0.3516,-0.872592 0.2809,0 0.31824,-0.499754 0.107,-1.431888 -0.33544,-1.480192 -0.19579,-1.672339 0.77206,-1.062252 0.32923,0.207538 0.43206,0.573606 0.2455,0.87402 -0.19552,0.314848 -0.0247,0.732542 0.43698,1.068516 0.73648,0.535951 0.73645,0.551604 -8.2e-4,0.551604 -0.73286,0 -0.73337,0.02806 -0.0148,0.818221 0.40922,0.450022 0.534,0.818222 0.27728,0.818222 -0.27313,0 -0.40907,0.493199 -0.32768,1.188843 0.0765,0.653865 0.0206,1.896539 -0.12427,2.761498 l -0.26337,1.572654 -0.6744,-1.32961 z m -9.07885,-1.199705 c 0.12428,-0.322322 0.47958,-0.489186 0.78954,-0.370814 0.35976,0.137396 0.56357,-0.07603 0.56357,-0.59015 0,-0.940505 0.26296,-1.011236 1.00691,-0.270848 0.40985,0.407888 0.42541,0.68657 0.0657,1.176194 -0.61344,0.834925 -2.74501,0.883797 -2.42568,0.05562 z m -18.86678,-1.227594 c 0.29674,-0.11818 0.6513,-0.103648 0.7879,0.03228 0.1366,0.135943 -0.1062,0.232637 -0.53954,0.214873 -0.47888,-0.01964 -0.57629,-0.116572 -0.24836,-0.247168 z m 11.64892,-1.745631 c 0.17664,-0.527401 0.74048,-0.622134 0.79132,-0.132961 0.0169,0.163133 -0.19115,0.370246 -0.46246,0.46025 -0.27131,0.09 -0.4193,-0.05728 -0.32886,-0.327289 z m 6.23663,-0.192024 c -0.47401,-0.537678 0.21273,-1.415695 2.33434,-2.984533 0.61648,-0.45586 0.71052,0.110477 0.47314,2.849269 -0.0755,0.87141 -2.07363,0.967678 -2.80748,0.135264 z m 2.30189,-1.208133 c -0.0204,-0.289851 -0.10952,-0.271232 -0.2398,0.05009 -0.11403,0.281263 -0.48032,0.511388 -0.81396,0.511388 -0.33364,0 -0.48674,0.193039 -0.34022,0.428977 0.32102,0.516945 1.4439,-0.280883 1.39398,-0.990457 z m 12.57033,1.379702 c 0.13973,-0.225011 0.33563,-0.409111 0.43533,-0.409111 0.0997,0 0.18128,0.1841 0.18128,0.409111 0,0.225011 -0.1959,0.409111 -0.43534,0.409111 -0.23943,0 -0.32101,-0.1841 -0.18127,-0.409111 z m -22.55195,-0.692973 c -0.46295,-0.460736 -0.28195,-0.94347 0.35374,-0.94347 0.33914,0 0.61662,0.173234 0.61662,0.384965 0,0.51588 -0.64194,0.885356 -0.97036,0.558505 z m 3.46929,-0.233557 c -1.23788,-0.628566 -1.50978,-1.347378 -0.63591,-1.68111 0.74435,-0.284266 2.01962,0.754744 1.65231,1.346208 -0.13022,0.209706 0.0892,0.465912 0.48765,0.569347 0.50786,0.13184 0.54008,0.200444 0.1078,0.229487 -0.33914,0.02279 -1.06447,-0.185986 -1.61185,-0.463932 z m 32.39718,-0.378935 c -0.0925,-1.088541 0.13651,-2.59872 0.48444,-3.194754 0.24116,-0.413132 0.3623,0.01346 0.37072,1.305464 0.007,1.055523 -0.17248,2.032913 -0.39858,2.171978 -0.22609,0.139065 -0.43155,0.01186 -0.45658,-0.282688 z m -31.14709,-1.057485 c -0.24758,-0.460397 -0.24598,-0.983842 0.004,-1.429045 0.36214,-0.64401 0.47679,-0.649226 1.37635,-0.06264 0.76133,0.496452 1.17178,0.538443 1.83102,0.187316 0.46735,-0.24892 0.84973,-0.630203 0.84973,-0.847297 0,-0.217095 0.26007,-0.394719 0.57794,-0.394719 0.99143,0 -0.18718,1.873801 -1.48534,2.361457 -0.93822,0.352445 -1.14799,0.319373 -1.14799,-0.180978 0,-0.336723 -0.23123,-0.531038 -0.51385,-0.431816 -0.28261,0.09922 -0.48815,0.482759 -0.45675,0.852312 0.0757,0.890471 -0.54485,0.85775 -1.03547,-0.0546 z m 20.29903,0.317396 c 0.13974,-0.225011 0.42813,-0.409111 0.64088,-0.409111 0.21275,0 0.38682,0.1841 0.38682,0.409111 0,0.225011 -0.2884,0.409111 -0.64088,0.409111 -0.35248,0 -0.52655,-0.1841 -0.38682,-0.409111 z m 12.60278,-0.818222 c 0,-0.562527 0.0933,-0.792652 0.20734,-0.511388 0.11404,0.281263 0.11404,0.741513 0,1.022777 -0.11403,0.281263 -0.20734,0.05114 -0.20734,-0.511389 z m -39.52838,0 c 0,-0.225011 0.18499,-0.40911 0.41108,-0.40911 0.22609,0 0.41108,0.184099 0.41108,0.40911 0,0.225011 -0.18499,0.409111 -0.41108,0.409111 -0.22609,0 -0.41108,-0.1841 -0.41108,-0.409111 z m 27.74776,-0.40911 c -0.13974,-0.225011 -0.0582,-0.409111 0.18127,-0.409111 0.23944,0 0.43534,0.1841 0.43534,0.409111 0,0.22501 -0.0816,0.40911 -0.18127,0.40911 -0.0997,0 -0.29561,-0.1841 -0.43534,-0.40911 z m -18.8991,-1.210445 c -0.16985,-0.273511 -0.10603,-0.699105 0.14181,-0.945762 0.63147,-0.628451 1.03153,-0.09435 0.55889,0.746169 -0.28761,0.511471 -0.47404,0.564577 -0.7007,0.199593 z m -8.42567,-0.410019 c -0.33259,-0.209329 -0.48014,-0.504577 -0.32789,-0.656103 0.15226,-0.151531 0.57633,0.02254 0.94239,0.386863 0.72329,0.719839 0.35665,0.88048 -0.6145,0.26924 z m 22.40458,-0.404565 c -0.13272,-0.21372 0.12168,-0.581919 0.56533,-0.818222 1.16916,-0.62272 1.34415,-0.533869 0.7653,0.388586 -0.56314,0.897405 -0.96047,1.025698 -1.33063,0.429636 z m -0.94504,-1.656968 c 0.28239,-0.450022 0.65393,-0.818222 0.82564,-0.818222 0.17171,0 0.31219,0.3682 0.31219,0.818222 0,0.546633 -0.27405,0.818221 -0.82563,0.818221 -0.72274,0 -0.76165,-0.101979 -0.3122,-0.818221 z m 16.29965,-0.9205 c -0.64732,-1.220844 -2.32431,-2.761498 -3.00587,-2.761498 -0.2998,0 -0.77488,-0.275548 -1.05573,-0.612328 -0.3718,-0.445845 0.015,-0.380935 1.4226,0.238737 1.06328,0.468088 2.02156,0.763163 2.12953,0.655722 0.10795,-0.107444 -0.29701,-0.686283 -0.89992,-1.286313 -0.60292,-0.600027 -0.95878,-1.217878 -0.7908,-1.373001 0.16798,-0.155118 0.388,-0.05191 0.48894,0.229352 0.10093,0.281264 0.44558,0.511388 0.76587,0.511388 0.3203,0 0.58236,0.162638 0.58236,0.361417 0,0.198783 0.46247,0.4494 1.0277,0.556935 1.02514,0.195031 1.39608,-0.234368 0.61662,-0.713796 -0.8355,-0.513897 -0.37209,-0.876471 0.92492,-0.723656 1.24147,0.146274 1.28219,0.114236 0.57545,-0.452746 -0.98718,-0.791977 -0.50077,-1.556761 0.78575,-1.235413 0.75138,0.18768 1.0025,0.08558 1.0025,-0.407609 0,-0.429145 -0.35745,-0.658018 -1.0277,-0.658018 -0.56523,0 -1.02769,-0.187606 -1.02769,-0.416904 0,-0.243871 0.44024,-0.306944 1.0607,-0.15196 1.00327,0.2506 1.04937,0.193345 0.85134,-1.057192 -0.22811,-1.440471 0.0206,-2.465052 0.59841,-2.465052 0.55531,0 0.4399,1.953214 -0.12651,2.141114 -0.38408,0.127414 -0.38408,0.231111 0,0.467348 0.27148,0.166983 0.4936,0.108639 0.4936,-0.129651 0,-0.238291 0.18499,-0.433257 0.41108,-0.433257 0.62206,0 0.49244,1.338787 -0.22884,2.363634 -0.60264,0.856264 -0.58773,0.909252 0.25587,0.909252 0.71452,0 0.80064,0.114114 0.42555,0.563902 -0.33884,0.406321 -0.34964,0.879617 -0.0386,1.693662 0.34642,0.906798 0.29502,1.27994 -0.26042,1.890758 -0.38061,0.418553 -0.52734,0.761008 -0.32608,0.761008 0.20126,0 -0.33417,0.373436 -1.18985,0.829861 -0.85568,0.456424 -1.71224,0.733629 -1.90346,0.616014 -0.19122,-0.117611 -0.45374,0.06125 -0.58338,0.397472 -0.34957,0.906585 -1.39716,0.740813 -1.9539,-0.309182 z m -50.2701,-4.201887 c 0.15704,-0.622691 0.0799,-1.014275 -0.19985,-1.014275 -0.2506,0 -0.45564,-0.270373 -0.45564,-0.600828 0,-0.385207 -0.23845,-0.509761 -0.66444,-0.347074 -0.56595,0.216134 -0.59427,0.123274 -0.19107,-0.626508 0.26034,-0.484142 0.30166,-0.880255 0.0918,-0.880255 -0.59824,0 -0.95441,-1.317525 -0.483,-1.786677 0.61683,-0.613879 0.5227,-0.993607 -0.29483,-1.189342 -0.59279,-0.141925 -0.53853,-0.250634 0.30831,-0.617729 0.56523,-0.245024 0.77667,-0.457165 0.46986,-0.471426 -0.31736,-0.01477 -0.458,-0.284823 -0.32626,-0.626496 0.12736,-0.330312 0.0547,-0.709378 -0.16155,-0.842367 -0.75076,-0.461776 -0.3872,-1.011735 0.66882,-1.011735 0.676,0 0.99348,-0.185859 0.87354,-0.511389 -0.10362,-0.281263 -0.44276,-0.44292 -0.75364,-0.359236 -0.31088,0.08368 -0.88896,0.243229 -1.28462,0.354548 -1.15549,0.325091 -0.82707,-0.515067 0.3671,-0.939114 l 1.08648,-0.385808 -1.39479,-1.380859 c -1.16087,-1.149275 -1.22244,-1.289076 -0.3671,-0.833584 0.56523,0.301003 1.18591,0.501706 1.37927,0.446007 0.65798,-0.189528 1.45351,0.806126 2.17421,2.721161 0.39557,1.051079 0.98245,2.070632 1.30419,2.26568 0.47362,0.287122 0.48281,0.417477 0.0482,0.684766 -0.42752,0.262956 -0.43349,0.453933 -0.0294,0.938557 0.34374,0.412204 0.36836,0.693926 0.0763,0.873546 -0.99869,0.614267 -0.37771,1.133498 1.07502,0.898881 0.85516,-0.138111 1.34373,-0.09 1.13046,0.111315 -0.20658,0.195003 -0.73241,0.418443 -1.16852,0.496538 -1.0178,0.182255 -1.08112,0.848651 -0.0943,0.992789 1.09892,0.160515 1.37622,0.581085 0.38313,0.581085 -0.46568,0 -0.96332,0.302501 -1.10588,0.672222 -0.34225,0.887627 0.11285,1.311077 0.58754,0.546683 0.276,-0.444446 0.49099,-0.479589 0.83563,-0.136607 0.5174,0.514932 0.48198,0.545582 -2.38139,2.060765 l -1.75947,0.931042 0.25579,-1.014276 z m -8.4286,-1.460578 c -0.27798,-0.9234 -0.42975,-1.754222 -0.33726,-1.846272 0.0925,-0.09205 0.39561,0.588146 0.6736,1.511546 0.27799,0.923399 0.42976,1.754222 0.33726,1.846271 -0.0925,0.09205 -0.39561,-0.588145 -0.6736,-1.511545 z m 44.77012,-1.19014 c 0,-0.225011 0.28839,-0.409111 0.64087,-0.409111 0.35249,0 0.52655,0.1841 0.38682,0.409111 -0.13973,0.225011 -0.42813,0.40911 -0.64088,0.40911 -0.21275,0 -0.38681,-0.184099 -0.38681,-0.40911 z m -0.20554,-1.227333 c -0.13974,-0.225011 -0.0582,-0.40911 0.18127,-0.40911 0.23944,0 0.43534,0.184099 0.43534,0.40911 0,0.225011 -0.0816,0.409111 -0.18127,0.409111 -0.0997,0 -0.29561,-0.1841 -0.43534,-0.409111 z m 4.83784,-0.771824 c 0.18268,-0.704906 0.002,-1.194358 -0.6481,-1.760346 l -0.90112,-0.783963 0.89085,0.242987 c 0.73719,0.20107 0.85384,0.10209 0.67624,-0.573823 -0.19612,-0.746349 -0.12272,-0.774266 0.85089,-0.323639 0.68291,0.316079 0.85165,0.539584 0.46994,0.622433 -0.4149,0.09005 -0.52725,0.469341 -0.37032,1.250247 0.156,0.776231 0.003,1.302666 -0.49806,1.711732 -0.66051,0.539437 -0.70136,0.505943 -0.47032,-0.385628 z m -5.60312,-0.660063 c 0.13015,-0.337517 0.30932,-0.613667 0.39818,-0.613667 0.0889,0 0.16156,0.27615 0.16156,0.613667 0,0.337516 -0.17918,0.613666 -0.39818,0.613666 -0.21899,0 -0.2917,-0.27615 -0.16156,-0.613666 z m -11.51018,-2.045554 c -0.13014,-0.337517 -0.13671,-0.613666 -0.0146,-0.613666 0.1221,0 0.49948,0.276149 0.83862,0.613666 0.53479,0.532236 0.53673,0.613666 0.0146,0.613666 -0.3311,0 -0.70847,-0.27615 -0.83862,-0.613666 z m 30.70545,-1.188328 c 0,-0.316063 0.24558,-0.480873 0.54574,-0.36624 0.30016,0.114629 0.4434,0.373228 0.3183,0.574657 -0.34792,0.560253 -0.86404,0.435757 -0.86404,-0.208417 z m -37.54511,-1.470892 c -0.242,-0.450022 -0.29301,-0.818222 -0.11335,-0.818222 0.17966,0 0.55771,0.3682 0.8401,0.818222 0.28442,0.453245 0.33498,0.818221 0.11335,0.818221 -0.22005,0 -0.5981,-0.3682 -0.8401,-0.818221 z m 23.3166,0.353283 c -0.39854,-0.221963 -0.60195,-0.60109 -0.45203,-0.842502 0.1802,-0.290191 -0.16511,-0.374999 -1.01905,-0.250265 -1.36911,0.199981 -1.50391,0.07038 -0.90559,-0.870654 0.29066,-0.457148 0.5027,-0.480607 0.95645,-0.105824 0.32066,0.264842 0.68994,0.375105 0.82065,0.245028 0.13069,-0.130076 0.55495,0.245467 0.94278,0.834537 0.81095,1.231747 0.69447,1.567619 -0.34321,0.98968 z m -22.84575,-2.251504 c -1.1319,-1.318793 -1.59279,-2.192887 -1.15627,-2.192887 0.30332,0 2.80995,3.340443 2.63631,3.513255 -0.10287,0.102372 -0.76888,-0.491792 -1.48004,-1.320368 z m 13.09472,1.104145 c 0,-0.211731 0.18286,-0.497446 0.40637,-0.634916 0.23302,-0.143327 0.30193,0.02091 0.16156,0.384965 -0.27329,0.708752 -0.56793,0.838428 -0.56793,0.249951 z m -11.55807,-1.353756 c -0.0264,-0.281264 -0.003,-1.708037 0.0517,-3.170609 0.20019,-5.346668 0.18102,-5.483146 -1.03405,-7.363994 -1.32828,-2.056102 -1.73238,-5.680839 -0.67368,-6.042956 0.40354,-0.138027 0.48085,0.04824 0.28061,0.676113 -0.22141,0.694276 -0.10532,0.866625 0.58376,0.866625 0.62268,0 0.92677,-0.331604 1.10152,-1.201179 0.13277,-0.660648 0.49811,-1.299219 0.81188,-1.419048 0.31377,-0.119828 0.59237,-0.729922 0.61912,-1.355763 l 0.0486,-1.137895 0.26823,1.227332 c 0.21314,0.975281 0.45642,1.201047 1.18459,1.099339 0.71455,-0.0998 0.92274,0.08041 0.94527,0.818222 0.0159,0.520418 0.20344,1.314415 0.41677,1.764436 0.3404,0.718066 0.3703,0.68728 0.24428,-0.251504 -0.079,-0.588349 0.0977,-1.398091 0.39253,-1.799426 0.78277,-1.065369 1.92574,-0.04336 1.69573,1.516271 -0.18237,1.236658 0.0616,1.431339 0.83243,0.664211 1.09913,-1.093869 0.92469,0.171172 -0.27141,1.968317 -0.70611,1.06093 -1.28384,2.261356 -1.28384,2.667614 0,1.045053 -1.88829,2.223048 -2.60911,1.627678 -0.65249,-0.538927 -1.09059,-0.203717 -1.09059,0.834463 0,0.41252 -0.27747,0.750037 -0.61661,0.750037 -0.34257,0 -0.61662,0.363654 -0.61662,0.818221 0,0.450022 0.18499,0.818222 0.41108,0.818222 0.22609,0 0.41108,-0.247617 0.41108,-0.550259 0,-0.302643 0.39766,-0.900967 0.88371,-1.32961 0.8824,-0.778204 0.8833,-0.777716 0.61238,0.331438 -0.14923,0.610934 -0.84292,1.953667 -1.54152,2.983852 -0.76478,1.127754 -1.28622,2.435744 -1.31047,3.287153 -0.0374,1.315525 -0.64051,2.043885 -0.74738,0.902699 z m 6.10838,-16.359273 c 0.0545,-0.719381 -0.0135,-0.785069 -0.3173,-0.306833 -0.47522,0.748013 -0.50454,1.222174 -0.0756,1.222174 0.17798,0 0.35477,-0.411903 0.39288,-0.915341 z m 11.82139,15.234218 c 0.13974,-0.225011 0.33564,-0.40911 0.43534,-0.40911 0.0997,0 0.18128,0.184099 0.18128,0.40911 0,0.225011 -0.1959,0.409111 -0.43534,0.409111 -0.23944,0 -0.32101,-0.1841 -0.18128,-0.409111 z m -40.98785,-1.735488 c 0.43395,-0.522708 0.43395,-0.674028 0,-0.827938 -0.29206,-0.103582 -0.43822,-0.290532 -0.32482,-0.415446 0.1134,-0.124913 0.51586,-0.0018 0.89436,0.273685 0.63098,0.459175 0.61384,0.546871 -0.20618,1.055054 -0.79803,0.494548 -0.83717,0.485354 -0.36336,-0.08535 z m 39.88985,-0.17993 c -0.0387,-0.409091 -0.0849,-1.204051 -0.10277,-1.766579 -0.0243,-0.766343 -0.22589,-0.989652 -0.80393,-0.89066 -0.63311,0.10842 -0.72598,-0.04831 -0.51779,-0.87381 0.19673,-0.780103 0.0711,-1.053442 -0.55958,-1.217583 -0.4473,-0.11641 -1.00056,-0.735745 -1.22947,-1.376299 -0.22891,-0.640553 -0.60111,-1.48432 -0.82711,-1.875036 -0.22599,-0.390716 -0.4109,-1.926775 -0.4109,-3.413465 0,-2.304502 0.11431,-2.732822 0.77526,-2.904836 0.42639,-0.11097 0.96883,-0.60001 1.20541,-1.086754 0.39561,-0.813923 0.43239,-0.778219 0.45798,0.444621 0.0354,1.691568 0.63657,1.709238 1.22269,0.03594 0.24923,-0.71152 0.56324,-1.184104 0.6978,-1.050188 0.36327,0.361535 -0.62754,3.081376 -1.1964,3.284205 -0.26991,0.09623 -0.37186,0.303129 -0.22659,0.459768 0.14528,0.156639 0.79273,-0.458576 1.43878,-1.367143 1.35833,-1.910301 1.75694,-2.084365 1.48077,-0.646635 -0.10805,0.562527 -0.35987,1.022777 -0.55961,1.022777 -0.19973,1e-6 -0.36315,0.27615 -0.36315,0.613667 0,0.904997 0.86427,0.746316 1.11412,-0.204556 0.23805,-0.905973 1.17391,-1.107586 1.42427,-0.306833 0.0879,0.281264 0.10249,1.523938 0.0324,2.761498 -0.0702,1.23756 -0.12874,2.802409 -0.13021,3.477442 -0.002,0.675032 -0.0988,1.834866 -0.21639,2.577409 -0.18325,1.157633 -0.34235,1.314181 -1.11616,1.098255 -0.57341,-0.160008 -0.7151,-0.121384 -0.38862,0.105937 0.40499,0.281981 0.38599,0.525955 -0.0897,1.151854 -0.78004,1.02636 -0.77998,1.407762 2e-4,1.407762 0.34643,0 0.79716,-0.414225 1.00164,-0.9205 0.26689,-0.660822 0.37912,-0.726387 0.39783,-0.232413 0.0143,0.378447 -0.5289,1.081358 -1.20718,1.562023 -1.15139,0.815942 -1.2379,0.824578 -1.30354,0.130136 z m -1.16293,-5.759276 c 0,-0.170885 -0.36997,-0.540645 -0.82215,-0.821688 -0.90011,-0.559439 -1.11479,-0.140708 -0.32886,0.641455 0.5568,0.554139 1.15101,0.647184 1.15101,0.180233 z m -0.20553,5.62914 c 0.13973,-0.22501 0.43904,-0.40911 0.66513,-0.40911 0.22609,0 0.29676,0.1841 0.15702,0.40911 -0.13973,0.225011 -0.43904,0.409111 -0.66513,0.409111 -0.2261,0 -0.29676,-0.1841 -0.15702,-0.409111 z m -1.59293,-1.144588 c -0.11147,-0.179501 -0.0327,-0.593726 0.17498,-0.920499 0.29486,-0.463874 0.37904,-0.39232 0.38396,0.326367 0.006,0.946287 -0.20238,1.168291 -0.55894,0.594132 z m 0.0171,-1.991928 c -0.15074,-0.150007 -0.27406,-0.462976 -0.27406,-0.695488 0,-0.25635 0.19146,-0.232196 0.48644,0.06137 0.26754,0.266263 0.39087,0.579233 0.27405,0.695488 -0.11682,0.116256 -0.33572,0.08864 -0.48644,-0.06137 z M 226.58084,30.734717 c 0,-0.562527 0.18499,-1.136557 0.41108,-1.275621 0.23218,-0.142809 0.41108,0.192259 0.41108,0.769932 0,0.562528 -0.18499,1.136557 -0.41108,1.275622 -0.23218,0.142808 -0.41108,-0.192259 -0.41108,-0.769933 z"
       id="path59" />
  </g>
</svg>
